<?xml version="1.0" encoding="iso-8859-1"?>
<!-- Generator: Adobe Illustrator 21.0.0, SVG Export Plug-In . SVG Version: 6.00 Build 0)  -->
<svg xmlns="http://www.w3.org/2000/svg" xmlns:xlink="http://www.w3.org/1999/xlink" version="1.1" id="Capa_1" x="0px" y="0px" viewBox="0 0 512 512" style="enable-background:new 0 0 512 512;" xml:space="preserve" width="512" height="512">
<g>
	<g>
		<g>
			<g>
				<g>
					<g>
						<g>
							<g>
								<g>
									<g>
										<g>
											<circle style="fill:#FFCE00;" cx="256" cy="256" r="256"/>
										</g>
									</g>
								</g>
							</g>
						</g>
					</g>
				</g>
			</g>
		</g>
	</g>
	<path style="fill:#FFB000;" d="M512,256c0-10.611-0.658-21.068-1.912-31.34L401.806,116.378L116.138,401.603l108.48,108.48   C234.904,511.34,245.374,512,256,512C397.385,512,512,397.385,512,256z"/>
	<g>
		<path style="fill:#FF7045;" d="M152.179,97C121.705,97,97,121.705,97,152.179v207.642C97,390.295,121.705,415,152.179,415h103.726    V97H152.179z"/>
		<path style="fill:#ED4D2E;" d="M359.821,97H255.905v318h103.916C390.295,415,415,390.295,415,359.821V152.179    C415,121.705,390.295,97,359.821,97z"/>
	</g>
	<g>
		<g>
			<path style="fill:#FFFFFF;" d="M234.714,368.176c-0.001-55.631-45.26-100.89-100.889-100.89v-43     c79.339,0,143.887,64.547,143.889,143.889L234.714,368.176z"/>
		</g>
		<g>
			<path style="fill:#E9EDF5;" d="M255.905,292.104v76.071l21.809,0C277.713,340.263,269.716,314.188,255.905,292.104z"/>
		</g>
		<g>
			<path style="fill:#FFFFFF;" d="M319.678,368.176c-0.002-102.48-83.375-185.853-185.854-185.853v-43     c61.128,0,118.598,23.805,161.823,67.029s67.03,100.694,67.031,161.823L319.678,368.176z"/>
		</g>
		<g>
			<path style="fill:#FFFFFF;" d="M319.678,368.176c-0.002-102.48-83.375-185.853-185.854-185.853v-43     c61.128,0,118.598,23.805,161.823,67.029s67.03,100.694,67.031,161.823L319.678,368.176z"/>
		</g>
		<g>
			<path style="fill:#E9EDF5;" d="M295.646,206.352c-12.193-12.193-25.52-22.838-39.742-31.842v53.652     c39.054,34.096,63.772,84.221,63.773,140.014l43-0.001C362.677,307.046,338.871,249.577,295.646,206.352z"/>
		</g>
		<g>
			
				<ellipse transform="matrix(0.7071 -0.7071 0.7071 0.7071 -205.8671 208.7931)" style="fill:#FFFFFF;" cx="149.101" cy="352.899" rx="38.278" ry="38.278"/>
		</g>
	</g>
</g>















</svg>
