<?xml version="1.0" encoding="UTF-8" standalone="no"?>
<!-- Generator: Adobe Illustrator 16.0.0, SVG Export Plug-In . SVG Version: 6.00 Build 0)  -->

<svg
   xmlns:dc="http://purl.org/dc/elements/1.1/"
   xmlns:cc="http://creativecommons.org/ns#"
   xmlns:rdf="http://www.w3.org/1999/02/22-rdf-syntax-ns#"
   xmlns:svg="http://www.w3.org/2000/svg"
   xmlns="http://www.w3.org/2000/svg"
   xmlns:sodipodi="http://sodipodi.sourceforge.net/DTD/sodipodi-0.dtd"
   xmlns:inkscape="http://www.inkscape.org/namespaces/inkscape"
   version="1.1"
   id="Capa_1"
   x="0px"
   y="0px"
   width="511.627px"
   height="511.627px"
   viewBox="0 0 511.627 511.627"
   style="enable-background:new 0 0 511.627 511.627;"
   xml:space="preserve"
   sodipodi:docname="youtube.svg"
   inkscape:version="0.92.3 (2405546, 2018-03-11)"><metadata
   id="metadata53"><rdf:RDF><cc:Work
       rdf:about=""><dc:format>image/svg+xml</dc:format><dc:type
         rdf:resource="http://purl.org/dc/dcmitype/StillImage" /></cc:Work></rdf:RDF></metadata><defs
   id="defs51" /><sodipodi:namedview
   pagecolor="#ffffff"
   bordercolor="#666666"
   borderopacity="1"
   objecttolerance="10"
   gridtolerance="10"
   guidetolerance="10"
   inkscape:pageopacity="0"
   inkscape:pageshadow="2"
   inkscape:window-width="1920"
   inkscape:window-height="1033"
   id="namedview49"
   showgrid="false"
   inkscape:zoom="0.92254706"
   inkscape:cx="-15.72811"
   inkscape:cy="340.04174"
   inkscape:window-x="-4"
   inkscape:window-y="-4"
   inkscape:window-maximized="1"
   inkscape:current-layer="Capa_1" />
<g
   id="g16"
   transform="matrix(0.6413568,0,0,0.6413568,91.747062,91.745459)">
	<g
   id="g14">
		<path
   d="m 459.954,264.376 c -2.471,-11.233 -7.949,-20.653 -16.416,-28.264 -8.474,-7.611 -18.227,-12.085 -29.27,-13.418 -35.02,-3.806 -87.837,-5.708 -158.457,-5.708 -70.618,0 -123.341,1.903 -158.174,5.708 -11.227,1.333 -21.029,5.807 -29.407,13.418 -8.376,7.614 -13.896,17.035 -16.562,28.264 -4.948,22.083 -7.423,55.391 -7.423,99.931 0,45.299 2.475,78.61 7.423,99.93 2.478,11.225 7.951,20.653 16.421,28.261 8.47,7.614 18.225,11.991 29.263,13.134 35.026,3.997 87.847,5.996 158.461,5.996 70.609,0 123.44,-1.999 158.453,-5.996 11.043,-1.143 20.748,-5.52 29.126,-13.134 8.377,-7.607 13.897,-17.036 16.56,-28.261 4.948,-22.083 7.426,-55.391 7.426,-99.93 -10e-4,-45.3 -2.479,-78.612 -7.424,-99.931 z m -294.929,28.842 h -30.549 v 162.45 h -28.549 v -162.45 h -29.98 v -26.837 h 89.079 v 26.837 z m 77.085,162.45 H 216.7 v -15.421 c -10.278,11.615 -19.989,17.419 -29.125,17.419 -8.754,0 -14.275,-3.524 -16.556,-10.564 -1.521,-4.568 -2.286,-11.519 -2.286,-20.844 V 314.627 h 25.41 v 103.924 c 0,6.088 0.096,9.421 0.288,9.993 0.571,3.997 2.568,5.995 5.996,5.995 5.138,0 10.566,-3.997 16.274,-11.991 V 314.627 h 25.41 v 141.041 z m 97.073,-42.257 c 0,13.894 -0.855,23.417 -2.56,28.558 -3.244,10.462 -9.996,15.697 -20.273,15.697 -9.137,0 -17.986,-5.235 -26.556,-15.697 v 13.702 h -25.406 v -189.29 h 25.406 v 61.955 c 8.189,-10.273 17.036,-15.413 26.556,-15.413 10.277,0 17.029,5.331 20.273,15.988 1.704,4.948 2.56,14.369 2.56,28.264 z m 96.502,-23.408 h -51.104 v 24.839 c 0,13.134 4.374,19.697 13.131,19.697 6.279,0 10.089,-3.422 11.42,-10.28 0.376,-1.902 0.571,-7.706 0.571,-17.412 h 25.981 v 3.71 c 0,9.329 -0.195,14.846 -0.572,16.563 -0.567,5.133 -2.56,10.273 -5.995,15.413 -6.852,10.089 -17.139,15.133 -30.841,15.133 -13.127,0 -23.407,-4.855 -30.833,-14.558 -5.517,-7.043 -8.275,-18.083 -8.275,-33.12 v -49.396 c 0,-15.036 2.662,-26.076 7.987,-33.119 7.427,-9.705 17.61,-14.558 30.557,-14.558 12.755,0 22.85,4.853 30.263,14.558 5.146,7.043 7.71,18.083 7.71,33.119 z"
   id="path2"
   inkscape:connector-curvature="0" />
		<path
   d="m 302.634,336.043 c -4.38,0 -8.658,2.101 -12.847,6.283 v 85.934 c 4.188,4.186 8.467,6.279 12.847,6.279 7.419,0 11.14,-6.372 11.14,-19.13 v -60.236 c -10e-4,-12.755 -3.713,-19.13 -11.14,-19.13 z"
   id="path4"
   inkscape:connector-curvature="0" />
		<path
   d="m 397.428,336.043 c -8.565,0 -12.847,6.475 -12.847,19.41 v 13.134 h 25.693 v -13.134 c 0,-12.942 -4.284,-19.41 -12.846,-19.41 z"
   id="path6"
   inkscape:connector-curvature="0" />
		<path
   d="m 148.473,113.917 v 77.375 h 28.549 V 113.917 L 211.563,0 H 182.442 L 163.032,75.089 142.759,0 h -30.262 c 5.33,15.99 11.516,33.785 18.559,53.391 8.947,26.265 14.749,46.444 17.417,60.526 z"
   id="path8"
   inkscape:connector-curvature="0" />
		<path
   d="m 249.82,193.291 c 13.134,0 23.219,-4.854 30.262,-14.561 5.332,-7.043 7.994,-18.274 7.994,-33.689 V 95.075 c 0,-15.225 -2.669,-26.363 -7.994,-33.406 -7.043,-9.707 -17.128,-14.561 -30.262,-14.561 -12.756,0 -22.75,4.854 -29.98,14.561 -5.327,7.043 -7.992,18.181 -7.992,33.406 v 49.965 c 0,15.225 2.662,26.457 7.992,33.689 7.233,9.708 17.223,14.562 29.98,14.562 z M 237.541,89.935 c 0,-13.134 4.093,-19.701 12.279,-19.701 8.186,0 12.275,6.567 12.275,19.701 v 59.955 c 0,13.328 -4.089,19.985 -12.275,19.985 -8.186,0 -12.279,-6.661 -12.279,-19.985 V 89.935 Z"
   id="path10"
   inkscape:connector-curvature="0" />
		<path
   d="m 328.328,193.291 c 9.523,0 19.328,-5.901 29.413,-17.705 v 15.703 h 25.981 V 48.822 h -25.981 v 108.777 c -5.712,8.186 -11.133,12.275 -16.279,12.275 -3.429,0 -5.428,-2.093 -5.996,-6.28 -0.191,-0.381 -0.287,-3.715 -0.287,-9.994 V 48.822 h -25.981 v 112.492 c 0,9.705 0.767,16.84 2.286,21.411 2.477,7.043 8.09,10.566 16.844,10.566 z"
   id="path12"
   inkscape:connector-curvature="0" />
	</g>
</g>
<g
   id="g18">
</g>
<g
   id="g20">
</g>
<g
   id="g22">
</g>
<g
   id="g24">
</g>
<g
   id="g26">
</g>
<g
   id="g28">
</g>
<g
   id="g30">
</g>
<g
   id="g32">
</g>
<g
   id="g34">
</g>
<g
   id="g36">
</g>
<g
   id="g38">
</g>
<g
   id="g40">
</g>
<g
   id="g42">
</g>
<g
   id="g44">
</g>
<g
   id="g46">
</g>
<rect
   style="opacity:0;fill:#020001;fill-opacity:1;stroke:#000000;stroke-width:40;stroke-miterlimit:4;stroke-dasharray:none;stroke-opacity:1;paint-order:stroke fill markers"
   id="rect4567"
   width="422"
   height="422"
   x="44.813507"
   y="44.813507" /></svg>