<?xml version="1.0"?>
<svg xmlns="http://www.w3.org/2000/svg" height="512px" viewBox="0 -54 512 512" width="512px" class=""><g><path d="m482 0h-452c-16.542969 0-30 13.457031-30 30v344c0 16.542969 13.457031 30 30 30h180.007812c5.519532 0 10-4.476562 10-10s-4.480468-10-10-10h-180.007812c-5.515625 0-10-4.484375-10-10v-344c0-5.515625 4.484375-10 10-10h452c5.515625 0 10 4.484375 10 10v344c0 5.515625-4.484375 10-10 10h-181.992188c-5.523437 0-10 4.476562-10 10s4.476563 10 10 10h181.992188c16.542969 0 30-13.457031 30-30v-344c0-16.542969-13.457031-30-30-30zm0 0" data-original="#000000" class="active-path" data-old_color="#ffffff" fill="#ffffff"/><path d="m250 292c5.523438 0 10-4.476562 10-10v-80c0-5.523438-4.476562-10-10-10h-10v-118c0-5.523438-4.476562-10-10-10s-10 4.476562-10 10v118h-10c-5.523438 0-10 4.476562-10 10v80c0 5.523438 4.476562 10 10 10h10v38c0 5.523438 4.476562 10 10 10s10-4.476562 10-10v-38zm-30-80h20v60h-20zm0 0" data-original="#000000" class="active-path" data-old_color="#ffffff" fill="#ffffff"/><path d="m70 340c5.523438 0 10-4.476562 10-10v-118h10c5.523438 0 10-4.476562 10-10v-80c0-5.523438-4.476562-10-10-10h-10v-38c0-5.523438-4.476562-10-10-10s-10 4.476562-10 10v38h-10c-5.523438 0-10 4.476562-10 10v80c0 5.523438 4.476562 10 10 10h10v118c0 5.523438 4.476562 10 10 10zm-10-208h20v60h-20zm0 0" data-original="#000000" class="active-path" data-old_color="#ffffff" fill="#ffffff"/><path d="m150 340c5.523438 0 10-4.476562 10-10v-78h10c5.523438 0 10-4.476562 10-10v-80c0-5.523438-4.476562-10-10-10h-10v-78c0-5.523438-4.476562-10-10-10s-10 4.476562-10 10v78h-10c-5.523438 0-10 4.476562-10 10v80c0 5.523438 4.476562 10 10 10h10v78c0 5.523438 4.476562 10 10 10zm-10-168h20v60h-20zm0 0" data-original="#000000" class="active-path" data-old_color="#ffffff" fill="#ffffff"/><path d="m462 82.671875c2.628906 0 5.210938-1.070313 7.070312-2.933594 1.859376-1.859375 2.929688-4.4375 2.929688-7.066406 0-2.640625-1.070312-5.210937-2.929688-7.070313-1.859374-1.871093-4.441406-2.929687-7.070312-2.929687s-5.210938 1.058594-7.070312 2.929687c-1.859376 1.859376-2.929688 4.4375-2.929688 7.070313 0 2.628906 1.070312 5.199219 2.929688 7.066406 1.859374 1.863281 4.441406 2.933594 7.070312 2.933594zm0 0" data-original="#000000" class="active-path" data-old_color="#ffffff" fill="#ffffff"/><path d="m404.671875 82.671875c2.628906 0 5.199219-1.070313 7.066406-2.933594 1.859375-1.867187 2.933594-4.4375 2.933594-7.066406 0-2.632813-1.070313-5.210937-2.933594-7.070313-1.867187-1.871093-4.4375-2.929687-7.066406-2.929687-2.640625 0-5.210937 1.058594-7.070313 2.929687-1.871093 1.859376-2.929687 4.429688-2.929687 7.070313 0 2.628906 1.058594 5.207031 2.929687 7.066406 1.859376 1.863281 4.429688 2.933594 7.070313 2.933594zm0 0" data-original="#000000" class="active-path" data-old_color="#ffffff" fill="#ffffff"/><path d="m347.328125 82.671875c2.632813 0 5.210937-1.070313 7.070313-2.933594 1.871093-1.859375 2.929687-4.4375 2.929687-7.066406 0-2.640625-1.058594-5.210937-2.929687-7.070313-1.859376-1.871093-4.4375-2.929687-7.070313-2.929687-2.628906 0-5.207031 1.058594-7.066406 2.929687-1.863281 1.847657-2.933594 4.429688-2.933594 7.070313 0 2.628906 1.070313 5.207031 2.933594 7.066406 1.859375 1.863281 4.4375 2.933594 7.066406 2.933594zm0 0" data-original="#000000" class="active-path" data-old_color="#ffffff" fill="#ffffff"/><path d="m290 82.671875c2.628906 0 5.210938-1.070313 7.070312-2.933594 1.859376-1.859375 2.929688-4.4375 2.929688-7.066406 0-2.640625-1.070312-5.210937-2.929688-7.070313-1.859374-1.871093-4.441406-2.929687-7.070312-2.929687s-5.210938 1.058594-7.070312 2.929687c-1.859376 1.859376-2.929688 4.429688-2.929688 7.070313 0 2.628906 1.070312 5.207031 2.929688 7.066406 1.859374 1.863281 4.441406 2.933594 7.070312 2.933594zm0 0" data-original="#000000" class="active-path" data-old_color="#ffffff" fill="#ffffff"/><path d="m454.929688 119.738281c1.859374 1.859375 4.441406 2.933594 7.070312 2.933594s5.210938-1.070313 7.070312-2.933594c1.859376-1.867187 2.929688-4.4375 2.929688-7.066406 0-2.632813-1.070312-5.210937-2.929688-7.070313-1.859374-1.871093-4.441406-2.929687-7.070312-2.929687s-5.210938 1.058594-7.070312 2.929687c-1.859376 1.859376-2.929688 4.4375-2.929688 7.070313 0 2.628906 1.070312 5.199219 2.929688 7.066406zm0 0" data-original="#000000" class="active-path" data-old_color="#ffffff" fill="#ffffff"/><path d="m397.601562 119.738281c1.859376 1.859375 4.429688 2.933594 7.070313 2.933594 2.628906 0 5.199219-1.070313 7.066406-2.933594 1.859375-1.859375 2.933594-4.4375 2.933594-7.066406 0-2.632813-1.070313-5.210937-2.933594-7.070313-1.859375-1.859374-4.4375-2.929687-7.066406-2.929687-2.640625 0-5.222656 1.066406-7.070313 2.929687-1.871093 1.859376-2.929687 4.4375-2.929687 7.070313 0 2.628906 1.058594 5.207031 2.929687 7.066406zm0 0" data-original="#000000" class="active-path" data-old_color="#ffffff" fill="#ffffff"/><path d="m340.261719 119.738281c1.859375 1.859375 4.4375 2.933594 7.066406 2.933594 2.632813 0 5.210937-1.070313 7.070313-2.933594 1.871093-1.859375 2.929687-4.4375 2.929687-7.066406 0-2.632813-1.058594-5.210937-2.929687-7.070313-1.859376-1.859374-4.429688-2.929687-7.070313-2.929687-2.628906 0-5.207031 1.066406-7.066406 2.929687-1.863281 1.859376-2.933594 4.429688-2.933594 7.070313 0 2.628906 1.070313 5.207031 2.933594 7.066406zm0 0" data-original="#000000" class="active-path" data-old_color="#ffffff" fill="#ffffff"/><path d="m282.929688 119.738281c1.859374 1.859375 4.441406 2.933594 7.070312 2.933594s5.210938-1.070313 7.070312-2.933594c1.859376-1.859375 2.929688-4.4375 2.929688-7.066406 0-2.632813-1.070312-5.210937-2.929688-7.070313-1.859374-1.859374-4.441406-2.929687-7.070312-2.929687-2.640625 0-5.210938 1.066406-7.070312 2.929687-1.859376 1.859376-2.929688 4.4375-2.929688 7.070313 0 2.628906 1.070312 5.207031 2.929688 7.066406zm0 0" data-original="#000000" class="active-path" data-old_color="#ffffff" fill="#ffffff"/><path d="m429.9375 236.125c23.191406 0 42.0625-18.871094 42.0625-42.0625 0-23.195312-18.867188-42.0625-42.0625-42.0625-23.191406 0-42.0625 18.867188-42.0625 42.0625 0 23.191406 18.871094 42.0625 42.0625 42.0625zm0-64.125c12.164062 0 22.0625 9.894531 22.0625 22.0625 0 12.164062-9.894531 22.0625-22.0625 22.0625-12.164062 0-22.0625-9.898438-22.0625-22.0625 0-12.167969 9.898438-22.0625 22.0625-22.0625zm0 0" data-original="#000000" class="active-path" data-old_color="#ffffff" fill="#ffffff"/><path d="m429.9375 340c23.195312 0 42.0625-18.867188 42.0625-42.0625 0-23.191406-18.867188-42.0625-42.0625-42.0625-23.191406 0-42.0625 18.867188-42.0625 42.0625s18.871094 42.0625 42.0625 42.0625zm0-64.125c12.164062 0 22.0625 9.898438 22.0625 22.0625 0 12.167969-9.894531 22.0625-22.0625 22.0625-12.164062 0-22.0625-9.894531-22.0625-22.0625 0-12.164062 9.898438-22.0625 22.0625-22.0625zm0 0" data-original="#000000" class="active-path" data-old_color="#ffffff" fill="#ffffff"/><path d="m322.0625 236.125c23.191406 0 42.0625-18.871094 42.0625-42.0625 0-23.195312-18.867188-42.0625-42.0625-42.0625s-42.0625 18.867188-42.0625 42.0625c0 23.191406 18.867188 42.0625 42.0625 42.0625zm0-64.125c12.164062 0 22.0625 9.894531 22.0625 22.0625 0 12.164062-9.898438 22.0625-22.0625 22.0625-12.167969 0-22.0625-9.898438-22.0625-22.0625s9.894531-22.0625 22.0625-22.0625zm0 0" data-original="#000000" class="active-path" data-old_color="#ffffff" fill="#ffffff"/><path d="m322.0625 340c23.191406 0 42.0625-18.867188 42.0625-42.0625 0-23.191406-18.867188-42.0625-42.0625-42.0625-23.191406 0-42.0625 18.867188-42.0625 42.0625s18.867188 42.0625 42.0625 42.0625zm0-64.125c12.164062 0 22.0625 9.898438 22.0625 22.0625 0 12.167969-9.898438 22.0625-22.0625 22.0625s-22.0625-9.894531-22.0625-22.0625c0-12.164062 9.894531-22.0625 22.0625-22.0625zm0 0" data-original="#000000" class="active-path" data-old_color="#ffffff" fill="#ffffff"/><path d="m255.011719 384c-2.640625 0-5.210938 1.070312-7.070313 2.929688-1.871094 1.859374-2.929687 4.441406-2.929687 7.070312s1.058593 5.210938 2.929687 7.070312c1.859375 1.859376 4.429688 2.929688 7.070313 2.929688 2.628906 0 5.207031-1.070312 7.058593-2.929688 1.871094-1.859374 2.941407-4.441406 2.941407-7.070312s-1.070313-5.210938-2.941407-7.070312c-1.851562-1.859376-4.429687-2.929688-7.058593-2.929688zm0 0" data-original="#000000" class="active-path" data-old_color="#ffffff" fill="#ffffff"/></g> </svg>
