<svg height="497pt" viewBox="-15 0 497 497.91922" width="497pt" xmlns="http://www.w3.org/2000/svg"><path d="m447.652344 460.324219h-22.546875v-14.609375c0-2.207032-1.789063-4-4-4h-10.988281c.117187-1.203125.183593-2.421875.183593-3.660156 0-15.84375-10.054687-29.347657-24.101562-34.566407v-14.550781c0-29.503906-10.699219-56.539062-28.394531-77.484375-.019532-.035156-.015626-.070313-.035157-.097656-.101562-.160157-.257812-.257813-.378906-.394531v-98.863282c9.203125-6.09375 15.296875-16.53125 15.296875-28.375 0-10.453125-4.777344-20.234375-12.898438-26.667968 1.226563-6.953126 1.847657-13.960938 1.847657-20.867188 0-33.105469-13.917969-65.101562-38.167969-87.78125-24.585938-22.984375-56.613281-34.382812-90.285156-32.128906-60.8125 4.097656-108.863282 53.140625-111.777344 114.082031-.417969 8.941406.148438 17.914063 1.703125 26.707031-8.117187 6.433594-12.890625 16.210938-12.890625 26.660156 0 11.84375 6.09375 22.28125 15.296875 28.375v98.859376c-.121094.140624-.277344.234374-.375.394531-.019531.03125-.019531.066406-.035156.097656-17.699219 20.941406-28.398438 47.980469-28.398438 77.484375v14.402344c-14.257812 5.113281-24.503906 18.722656-24.503906 34.714844 0 1.238281.070313 2.457031.183594 3.660156h-10.582031c-2.214844 0-4 1.792968-4 4v14.609375h-22.550782c-10.363281 0-18.792968 8.429687-18.792968 18.800781 0 10.367188 8.429687 18.792969 18.792968 18.792969h412.394532c10.363281 0 18.796874-8.429688 18.796874-18.792969 0-10.367188-8.429687-18.800781-18.792968-18.800781zm0 0" fill="#e6e7e8"/><path d="m249.953125 256.691406h-48.992187c-64.203126 0-116.25 52.042969-116.25 116.246094v17.332031c2.6875-.707031 5.492187-1.121093 8.40625-1.121093 18.171874 0 32.902343 14.730468 32.902343 32.902343 0 2.640625-.320312 5.203125-.90625 7.660157h44.714844v18.613281h111.253906v-18.613281h44.320313c-.585938-2.460938-.914063-5.019532-.914063-7.660157 0-18.171875 14.730469-32.902343 32.90625-32.902343 3.058594 0 6 .445312 8.804688 1.226562v-17.4375c0-64.199219-52.042969-116.246094-116.246094-116.246094zm0 0" fill="#6dc9f7"/><path d="m326.527344 197.472656c-.65625.164063-1.332032.273438-2.035156.273438-.207032 0-.40625-.046875-.609376-.058594-.40625.015625-.804687.058594-1.214843.058594 0 0 .003906-.078125.011719-.207032-3.789063-.832031-6.628907-4.195312-6.628907-8.230468v-44.453125c0-4.660157 3.78125-8.441407 8.441407-8.441407.5 0 .984374.066407 1.460937.148438.542969-12.203125.867187-22.1875.625-25.050781-4.164063-49.644531-44.703125-89.378907-94.417969-92.59375-1.210937-.078125-2.410156-.097657-3.613281-.132813h-6.773437c-54.257813 1.945313-97.800782 46.679688-97.800782 101.40625 0 1.601563.308594 7.953125.757813 16.363282.441406-.070313.886719-.136719 1.347656-.136719 4.660156 0 8.441406 3.78125 8.441406 8.441406v44.453125c0 3.914062-2.675781 7.175781-6.292969 8.125.011719.191406.019532.3125.019532.3125-.488282 0-.957032-.046875-1.441406-.070312-.246094.019531-.476563.070312-.726563.070312-.828125 0-1.609375-.15625-2.367187-.378906-3.65625-.554688-7.09375-1.773438-10.195313-3.519532v102.535157c21.308594-24.316407 52.566406-39.691407 87.441406-39.691407h3.726563c-11.003906-2.59375-21.234375-7.1875-30.285156-13.386718-21.925782-.1875-39.652344-18.007813-39.652344-39.984375v-110.382813c0-32.828125 26.613281-59.4375 59.441406-59.4375 19.804688 0 38.152344 9.09375 48.953125 23.988282h11.945313c33.582031 0 60.800781 27.21875 60.800781 60.800781v50.371093c0 42.824219-29.773438 78.671876-69.75 88.027344h3.816406c34.871094 0 66.132813 15.375 87.4375 39.691406v-102.542968c-3.285156 1.855468-6.949219 3.128906-10.863281 3.632812zm0 0" fill="#fa759e"/><path d="m310.300781 429.714844v-83.667969c0-20.769531 10.785157-39.789063 28.046875-50.542969-19.089844-22.339844-46.484375-37.332031-77.402344-40.242187v21.671875c0 19.601562-15.890624 35.488281-35.488281 35.488281-19.601562 0-35.488281-15.886719-35.488281-35.488281v-21.671875c-30.921875 2.910156-58.320312 17.902343-77.40625 40.242187 17.265625 10.753906 28.050781 29.773438 28.050781 50.542969v83.667969h29.210938v18.613281h111.253906v-18.613281zm0 0" fill="#0089ef"/><path d="m112.796875 307.246094c1.238281-1.441406 2.511719-2.859375 3.820313-4.238282-1.308594 1.378907-2.582032 2.796876-3.820313 4.238282zm0 0" fill="#6dc9f7"/><path d="m112.574219 307.515625c.078125-.089844.144531-.179687.222656-.269531-.078125.089844-.15625.171875-.234375.261718.003906 0 .007812.003907.011719.007813zm0 0" fill="#6dc9f7"/><path d="m245.035156 333.597656 5.585938-12.0625-9.765625 10.601563c-4.332031-1.289063-8.90625-2.003907-13.652344-2.003907-26.46875 0-48 21.53125-48 48 0 19.433594 11.636719 36.175782 28.289063 43.714844l-4.804688 11.6875 9.597656-9.8125c4.699219 1.542969 9.707032 2.40625 14.917969 2.40625 26.46875 0 48-21.535156 48-48 .003906-20.164062-12.511719-37.433594-30.167969-44.53125zm-57.828125 44.53125c0-22.058594 17.945313-40 40-40 2.550781 0 5.039063.261719 7.460938.722656l-41.507813 45.050782h29.925782l-12.550782 30.539062c-13.742187-6.339844-23.328125-20.210937-23.328125-36.3125zm40 40c-2.925781 0-5.78125-.335937-8.53125-.9375l41.128907-42.054687h-33.996094l15.859375-34.261719c14.917969 5.8125 25.535156 20.300781 25.535156 37.253906.003906 22.054688-17.945313 40-39.996094 40zm0 0" fill="#fff"/><path d="m225.457031 259.09375c-12.601562 0-24.59375-2.582031-35.488281-7.234375v25.074219c0 19.601562 15.886719 35.488281 35.488281 35.488281 19.597657 0 35.488281-15.886719 35.488281-35.488281v-25.074219c-10.898437 4.65625-22.894531 7.234375-35.488281 7.234375zm0 0" fill="#fff"/><path d="m255.089844 57.496094h-11.945313c-2.082031 0-6.195312.011718-8.953125.011718-32.828125 0-59.441406 26.613282-59.441406 59.4375v126.375c-.113281 0-.230469-.015624-.347656-.015624 14.535156 9.957031 32.109375 15.792968 51.054687 15.792968 49.941407 0 90.429688-40.488281 90.429688-90.429687v-50.371094c0-33.582031-27.21875-60.800781-60.796875-60.800781zm0 0" fill="#fff"/><path d="m285.0625 179.289062c0-2.796874-3.59375-5.066406-8.03125-5.066406s-8.03125 2.269532-8.03125 5.066406c0 2.796876 3.59375 5.0625 8.03125 5.0625s8.03125-2.265624 8.03125-5.0625zm0 0" fill="#ffd7e5"/><path d="m181.910156 178.164062c0-2.796874-3.59375-5.066406-8.03125-5.066406-4.433594 0-8.03125 2.269532-8.03125 5.066406 0 2.796876 3.597656 5.0625 8.03125 5.0625 4.4375 0 8.03125-2.265624 8.03125-5.0625zm0 0" fill="#ffd7e5"/><path d="m225.457031 223.976562c-13.816406 0-20.847656-9.523437-21.140625-9.933593-1.320312-1.828125-.910156-4.378907.917969-5.699219 1.824219-1.316406 4.359375-.910156 5.6875.902344.25.328125 5.0625 6.566406 14.535156 6.566406 9.445313 0 14.523438-6.554688 14.574219-6.617188 1.359375-1.796874 3.921875-2.148437 5.71875-.792968 1.796875 1.359375 2.152344 3.925781.789062 5.722656-.308593.398438-7.621093 9.851562-21.082031 9.851562zm0 0" fill="#fa759e"/><path d="m174.75 116.941406c0-32.828125 26.613281-59.4375 59.441406-59.4375 2.757813 0 6.871094-.011718 8.953125-.011718-10.800781-14.894532-29.148437-23.988282-48.953125-23.988282-32.828125 0-59.441406 26.609375-59.441406 59.4375v110.378906c0 22.089844 17.910156 40 40 40zm0 0" fill="#fff"/><path d="m206.191406 45.503906c-32.828125 0-59.441406 26.609375-59.441406 59.4375v110.378906c0 7.972657 2.363281 15.382813 6.382812 21.617188 6.234376 4.023438 13.648438 6.382812 21.617188 6.382812v-126.378906c0-32.828125 26.613281-59.4375 59.441406-59.4375 2.714844 0 6.746094-.007812 8.847656-.011718-10.28125-7.578126-23.183593-11.988282-36.847656-11.988282zm0 0" fill="#ffd7e5"/><path d="m125.085938 429.714844c.589843-2.460938.933593-5.015625.933593-7.660156 0-18.171876-14.730469-32.902344-32.902343-32.902344-18.171876 0-32.90625 14.730468-32.90625 32.902344 0 2.644531.34375 5.199218.933593 7.660156zm0 0" fill="#fff"/><path d="m389.367188 429.714844c.589843-2.460938.933593-5.015625.933593-7.660156 0-18.171876-14.734375-32.902344-32.90625-32.902344s-32.90625 14.730468-32.90625 32.902344c0 2.644531.34375 5.199218.929688 7.660156zm0 0" fill="#fff"/><path d="m45.804688 429.714844h124.019531v18.613281h-124.019531zm0 0" fill="#fa759e"/><path d="m281.082031 429.714844h124.023438v18.613281h-124.023438zm0 0" fill="#fa759e"/><path d="m431.652344 477.917969h-412.394532c-8.171874 0-14.792968-6.621094-14.792968-14.792969s6.621094-14.796875 14.792968-14.796875h412.390626c8.171874 0 14.796874 6.625 14.796874 14.796875.003907 8.171875-6.621093 14.792969-14.792968 14.792969zm0 0" fill="#0089ef"/><path d="m339.394531 142.792969c1.472657-7.421875 2.246094-14.976563 2.246094-22.609375 0-66.707032-56.515625-120.46875-124.183594-115.914063-58.410156 3.933594-105.261719 51.800781-108.050781 110.277344-.453125 9.546875.261719 19.007813 2.09375 28.257813-8.007812 5.390624-13.28125 14.539062-13.28125 24.917968 0 15.035156 11.066406 27.457032 25.488281 29.644532.757813.222656 1.539063.378906 2.367188.378906.25 0 .480469-.050782.726562-.070313.480469.023438.953125.070313 1.441407.070313 0 0-.007813-.121094-.019532-.3125 3.613282-.953125 6.292969-4.214844 6.292969-8.125v-44.453125c0-4.660157-3.78125-8.441407-8.441406-8.441407-.457031 0-.90625.066407-1.347657.136719-.449218-8.410156-.757812-14.765625-.757812-16.363281 0-58.175781 49.207031-105.082031 108.1875-101.269531 49.71875 3.214843 90.257812 42.949219 94.417969 92.59375.242187 2.863281-.082031 12.847656-.625 25.050781-.476563-.082031-.960938-.148438-1.460938-.148438-4.660156 0-8.441406 3.78125-8.441406 8.441407v44.453125c0 4.035156 2.839844 7.402344 6.628906 8.230468-.007812.128907-.011719.207032-.011719.207032.410157 0 .808594-.042969 1.214844-.058594.203125.015625.402344.058594.609375.058594.707031 0 1.378907-.109375 2.035157-.273438 14.753906-1.902344 26.160156-14.476562 26.160156-29.75.007812-10.386718-5.273438-19.539062-13.289063-24.929687zm0 0" fill="#0089ef"/><g fill="#3a2c60"><path d="m140.613281 401.597656c2.210938 0 4-1.789062 4-4v-18.378906c0-2.207031-1.789062-4-4-4-2.214843 0-4 1.792969-4 4v18.378906c0 2.210938 1.785157 4 4 4zm0 0"/><path d="m265.351562 165.046875c4.996094 0 9.042969-4.046875 9.042969-9.042969s-4.046875-9.042968-9.042969-9.042968c-4.996093 0-9.042968 4.046874-9.042968 9.042968s4.050781 9.042969 9.042968 9.042969zm0 0"/><path d="m235.738281 175.941406c-2.210937 0-4 1.792969-4 4v6.03125c0 3.460938-2.820312 6.28125-6.28125 6.28125-3.464843 0-6.285156-2.820312-6.285156-6.28125v-6.03125c0-2.207031-1.789063-4-4-4s-4 1.792969-4 4v6.03125c0 7.875 6.410156 14.28125 14.285156 14.28125 7.871094 0 14.28125-6.40625 14.28125-14.28125v-6.03125c0-2.207031-1.785156-4-4-4zm0 0"/><path d="m276.179688 141.574219c.234374.039062.464843.0625.691406.0625 1.914062 0 3.597656-1.371094 3.9375-3.316407.378906-2.175781-1.082032-4.25-3.253906-4.628906l-17.707032-3.085937c-2.210937-.363281-4.253906 1.085937-4.628906 3.257812-.378906 2.175781 1.082031 4.246094 3.253906 4.628907zm0 0"/><path d="m431.652344 444.324219h-22.546875v-14.609375c0-2.207032-1.789063-4-4-4h-10.996094c.117187-1.203125.195313-2.421875.195313-3.660156 0-15.84375-10.054688-29.347657-24.101563-34.566407v-14.550781c0-29.472656-10.691406-56.46875-28.363281-77.398438-.03125-.058593-.03125-.125-.066406-.183593-.101563-.160157-.257813-.257813-.378907-.394531v-98.863282c9.207031-6.09375 15.296875-16.53125 15.296875-28.375 0-10.453125-4.777344-20.234375-12.898437-26.667968 1.226562-6.953126 1.847656-13.960938 1.847656-20.867188 0-33.105469-13.917969-65.101562-38.167969-87.777344-24.585937-22.984375-56.625-34.394531-90.285156-32.125-60.816406 4.089844-108.871094 53.132813-111.78125 114.074219-.417969 8.9375.144531 17.910156 1.699219 26.703125-8.113281 6.4375-12.886719 16.214844-12.886719 26.660156 0 11.84375 6.09375 22.28125 15.296875 28.375v98.863282c-.121094.136718-.277344.234374-.375.394531-.035156.054687-.035156.125-.070313.183593-17.671874 20.929688-28.363281 47.925782-28.363281 77.398438v14.402344c-14.257812 5.113281-24.503906 18.722656-24.503906 34.714844 0 1.238281.078125 2.457031.195313 3.660156h-10.59375c-2.214844 0-4 1.792968-4 4v14.609375h-22.550782c-10.363281 0-18.792968 8.429687-18.792968 18.796875 0 10.363281 8.429687 18.796875 18.792968 18.796875h412.394532c10.363281 0 18.796874-8.429688 18.796874-18.796875 0-10.371094-8.429687-18.796875-18.792968-18.796875zm-30.546875-10.609375v10.609375h-116.023438v-10.609375zm-14.800781-11.660156c0 1.246093-.101563 2.460937-.261719 3.660156h-57.292969c-.160156-1.199219-.257812-2.414063-.257812-3.660156 0-15.941407 12.96875-28.90625 28.90625-28.90625 15.941406 0 28.90625 12.964843 28.90625 28.90625zm-24.101563-49.117188v12.5625c-1.574219-.207031-3.171875-.347656-4.804687-.347656-20.351563 0-36.90625 16.554687-36.90625 36.90625 0 1.238281.074218 2.457031.195312 3.660156h-6.386719v-77.6875c0-18.132812 8.613281-34.773438 23.222657-45.1875 15.421874 19.21875 24.679687 43.589844 24.679687 70.09375zm-136.746094-117.839844c-16.675781 0-32.765625-4.730468-46.710937-13.707031v-79.496094c1.660156 1.917969 4.078125 3.152344 6.808594 3.152344 4.996093 0 9.046874-4.046875 9.046874-9.042969s-4.050781-9.042968-9.046874-9.042968c-2.730469 0-5.152344 1.234374-6.808594 3.148437v-9.234375l13.695312-2.382812c2.175782-.382813 3.628906-2.453126 3.25-4.628907s-2.414062-3.621093-4.628906-3.257812l-12.316406 2.144531v-15.8125c0-30.570312 24.875-55.4375 55.441406-55.4375l20.898438-.007812c31.320312 0 56.800781 25.480468 56.800781 56.800781v50.371093c0 18.738282-6.011719 36.089844-16.183594 50.261719h-15.691406c-1.648438-4.578125-5.988281-7.875-11.136719-7.875-6.558594 0-11.875 5.316407-11.875 11.875 0 6.5625 5.316406 11.878907 11.875 11.878907 5.148438 0 9.488281-3.296876 11.136719-7.878907h9.226562c-15.816406 17.300781-38.550781 28.171875-63.78125 28.171875zm31.488281 2.617188v19.222656c0 17.367188-14.125 31.488281-31.488281 31.488281-17.367187 0-31.488281-14.121093-31.488281-31.488281v-19.222656c.492188.175781 1 .292968 1.496094.460937 1.515625.507813 3.042968.972657 4.585937 1.402344.886719.25 1.769531.496094 2.660157.71875 1.75.429687 3.511718.792969 5.285156 1.125.6875.128906 1.367187.277344 2.054687.390625 2.25.367188 4.515625.652344 6.796875.859375.234375.019531.46875.058594.703125.078125 2.621094.21875 5.253907.351562 7.902344.351562 2.621094 0 5.21875-.132812 7.789063-.347656.125-.007812.253906-.015625.382812-.027344 2.523438-.214843 5.019531-.53125 7.484375-.941406.265625-.046875.535156-.097656.800781-.144531 2.4375-.429687 4.847656-.929687 7.214844-1.542969.210938-.054687.417969-.121094.628906-.179687 2.074219-.550781 4.109375-1.183594 6.125-1.871094.351563-.128906.714844-.207031 1.066406-.332031zm-126.425781-112.859375v44.453125c0 2.445312-1.992187 4.4375-4.441406 4.4375-2.441406 0-4.433594-1.992188-4.433594-4.4375v-44.453125c0-2.449219 1.992188-4.441407 4.433594-4.441407 2.449219 0 4.441406 1.992188 4.441406 4.441407zm-2.546875-24.667969c0-7.75.96875-15.417969 2.777344-22.859375v36.019531c-.710938-.292968-1.449219-.523437-2.21875-.679687-.34375-6.542969-.558594-11.199219-.558594-12.480469zm-5.070312 81.097656c1.019531.269532 2.074218.457032 3.175781.457032.25 0 .480469-.058594.726563-.070313.484374.019531.953124.070313 1.441406.070313.886718 0 1.699218-.359376 2.390625-.890626.039062-.015624.078125-.019531.117187-.035156v2.503906c0 23.71875 18.886719 43.066407 42.398438 43.917969 3.75 2.503907 7.644531 4.746094 11.667968 6.667969-25.246093 3.433594-48.855468 14.714844-67.300781 32.492188v-86.410157c1.734375.578125 3.535157 1.003907 5.382813 1.296875zm199.214844-68.628906c-.773438.148438-1.511719.378906-2.226563.664062v-15.027343c0-35.734375-29.070313-64.800781-64.800781-64.800781l-10.066406.003906c-11.765626-15.023438-30.550782-23.996094-50.828126-23.996094-1.722656 0-3.425781.078125-5.117187.222656 13.382813-5.394531 27.921875-7.777344 42.824219-6.816406 47.714844 3.082031 86.703125 41.316406 90.691406 88.9375.199219 2.371094-.039062 10.398438-.476562 20.8125zm2.375 7.757812c2.445312 0 4.433593 1.992188 4.433593 4.441407v44.453125c0 .558594-.121093 1.078125-.3125 1.566406-.097656.257812-.253906.464844-.394531.695312-.113281.183594-.214844.367188-.355469.527344-.246093.300782-.535156.542969-.855469.765625-.050781.035157-.105468.070313-.160156.109375-.382812.246094-.789062.425782-1.238281.546875-.367187.09375-.722656.222657-1.113281.222657-1.445313 0-2.671875-.738282-3.480469-1.816407-.15625-.195312-.296875-.394531-.414063-.613281-.09375-.175781-.175781-.34375-.242187-.535156-.175781-.460938-.300781-.949219-.300781-1.476563v-44.445312c-.007813-2.449219 1.984375-4.441407 4.433594-4.441407zm-5.222657 60.140626c-1.238281 7.355468-6.117187 13.480468-12.730469 16.445312 3.621094-6.046875 6.578126-12.535156 8.785157-19.359375 1.101562 1.21875 2.433593 2.214844 3.945312 2.914063zm-125.078125-163.050782c15.488282 0 30 5.863282 40.265625 16h-.265625c-34.980468 0-63.441406 28.460938-63.441406 63.4375v122.15625c-17.96875-1.996094-31.996094-17.277344-31.996094-35.777344v-110.378906c-.003906-30.566406 24.871094-55.4375 55.4375-55.4375zm71.878906 216.398438c13.230469-6.328125 24.746094-15.65625 33.707032-27.082032 14.015625-1.027343 25.359375-11.695312 27.441406-25.398437.039062-.007813.078125-.027344.117188-.035156 2.082031-.289063 4.113281-.75 6.058593-1.398438v86.410157c-18.445312-17.785157-42.070312-29.066407-67.324219-32.496094zm68.152344 39.027344c.484375.507812.976563 1.011718 1.449219 1.535156-.007813.003906-.019531.011718-.027344.019531-.472656-.519531-.9375-1.046875-1.421875-1.554687zm14.46875-125.207032c0 9.0625-4.710937 16.957032-11.765625 21.601563 0-.003907 0-.011719 0-.015625v-43.414063c.085938.070313.148438.15625.242188.214844 7.210937 4.855469 11.523437 12.933594 11.523437 21.613281zm-235.292968-52.984375c2.714843-56.878906 47.566406-102.652343 104.324218-106.476562 31.339844-2.117188 61.332032 8.539062 84.28125 29.992187 22.644532 21.171875 35.632813 51.039063 35.632813 81.933594 0 6.5-.625 13.101562-1.792969 19.648438-1.164062-2.625-3.222656-4.742188-5.78125-6.035157.46875-11.03125.726562-19.863281.492188-22.621093-4.3125-51.539063-46.507813-92.917969-98.140626-96.253907-2.363281-.152343-4.710937-.226562-7.050781-.226562-26.871093 0-52.214843 10-72 28.542969-21.222656 19.898437-33.394531 47.941406-33.394531 76.945312 0 1.449219.238281 6.601562.605469 13.566406-2.425781 1.210938-4.390625 3.175782-5.597657 5.605469-1.40625-8.117187-1.964843-16.378906-1.578124-24.621094zm3.285156 178.195313c-.480469.507812-.949219 1.03125-1.421875 1.546875-.007813-.003907-.019531-.011719-.027344-.019531.476563-.515626.964844-1.019532 1.449219-1.527344zm-14.464844-125.210938c0-8.636718 4.273438-16.671875 11.421875-21.53125v42.910156c-6.855469-4.679687-11.421875-12.464843-11.421875-21.378906zm-13.511719 205.214844c0-26.503906 9.257813-50.875 24.679688-70.09375 14.609375 10.414062 23.226562 27.054688 23.226562 45.1875v12.925781c0 2.207031 1.785157 4 4 4 2.210938 0 4-1.792969 4-4v-12.925781c0-20.5-9.640625-39.320312-26-51.265625 17.304688-18.691406 40.882813-31.492187 67.355469-35.039063v15.210938c0 21.773438 17.714844 39.488281 39.488281 39.488281 21.769531 0 39.488281-17.714843 39.488281-39.488281v-15.210938c26.46875 3.550782 50.042969 16.347657 67.355469 35.039063-16.359375 11.941406-26 30.761719-26 51.265625v77.683594h-25.21875c-2.210937 0-4 1.792968-4 4v14.609375h-103.253906v-14.609375c0-2.207032-1.789063-4-4-4h-25.214844v-12.023438c0-2.207031-1.789062-4-4-4-2.214843 0-4 1.792969-4 4v12.023438h-6.792969c.121094-1.203125.195313-2.421875.195313-3.660156 0-20.347657-16.554687-36.90625-36.90625-36.90625-1.492187 0-2.957031.113281-4.40625.285156v-12.496094zm4.40625 20.210938c15.933594 0 28.90625 12.964843 28.90625 28.90625 0 1.246093-.101562 2.460937-.261719 3.660156h-57.289062c-.160156-1.199219-.261719-2.414063-.261719-3.660156 0-15.941407 12.96875-28.90625 28.90625-28.90625zm-43.304687 40.566406h116.019531v10.609375h-116.019531zm381.84375 40.203125h-412.394532c-5.949218 0-10.792968-4.84375-10.792968-10.796875s4.84375-10.796875 10.792968-10.796875h412.394532c5.953125 0 10.796875 4.84375 10.796875 10.796875s-4.84375 10.796875-10.796875 10.796875zm0 0"/></g></svg>