<svg height="502pt" viewBox="-18 0 502 502.09438" width="502pt" xmlns="http://www.w3.org/2000/svg"><path d="m447.230469 464.503906h-22.546875v-14.613281c0-2.207031-1.789063-4-4-4h-10.988282c.121094-1.203125.183594-2.425781.183594-3.660156 0-15.785157-9.976562-29.242188-23.941406-34.507813v-14.898437c0-31.78125-12.410156-60.699219-32.613281-82.21875-.164063-.199219-.324219-.382813-.519531-.542969-14.238282-14.976562-32.265626-26.300781-52.546876-32.394531-.097656-.039063-.199218-.0625-.300781-.085938-5.820312-1.734375-11.824219-3.03125-17.976562-3.867187 24.046875-11.566406 42.449219-33.027344 49.953125-59.066406 1.21875 1.0625 2.628906 1.878906 4.195312 2.40625.636719.40625 1.347656.699218 2.117188.699218.414062 0 .808594-.046875 1.21875-.058594.207031.011719.398437.058594.605468.058594.980469 0 1.929688-.144531 2.84375-.359375 16.558594-2.289062 29.355469-16.492187 29.355469-33.664062 0-10.453125-4.773437-20.234375-12.898437-26.667969 1.226562-6.953125 1.847656-13.960938 1.847656-20.867188 0-33.109374-13.914062-65.101562-38.171875-87.78125-24.582031-22.984374-56.640625-34.386718-90.28125-32.125-54.875 3.683594-99.34375 43.980469-109.644531 96.585938h-31.492188c-8.550781 0-15.5 6.953125-15.5 15.5s6.949219 15.5 15.5 15.5h29.476563c.285156 4.421875.808593 8.828125 1.582031 13.1875-8.113281 6.4375-12.882812 16.214844-12.882812 26.660156 0 16.964844 12.492187 31.027344 28.753906 33.570313 1.613281 13.609375 12.351562 24.4375 25.917968 26.199219 9.222657 12.84375 21.570313 23.300781 35.941407 30.210937-6.15625.835937-12.164063 2.136719-17.988281 3.871094-.082032.023437-.167969.039062-.246094.070312-20.300782 6.097657-38.339844 17.425781-52.585938 32.410157-.199218.164062-.359375.351562-.527344.550781-20.199218 21.519531-32.609374 50.4375-32.609374 82.214843v14.632813c-14.347657 5.066406-24.667969 18.722656-24.667969 34.777344 0 1.234375.066406 2.457031.183593 3.660156h-10.589843c-2.207031 0-4 1.792969-4 4v14.613281h-22.542969c-10.363281 0-18.796875 8.429688-18.796875 18.792969 0 10.367187 8.433594 18.796875 18.796875 18.796875h412.390625c10.363281 0 18.796875-8.429688 18.796875-18.796875 0-10.363281-8.4375-18.792969-18.800781-18.792969zm-300.644531-247.558594c1.441406-.527343 2.742187-1.316406 3.878906-2.304687 1.867187 6.488281 4.398437 12.703125 7.542968 18.542969-6.042968-3.238282-10.394531-9.203125-11.421874-16.238282zm0 0" fill="#e6e7e8"/><path d="m249.695312 260.574219h-48.996093c-64.199219 0-116.246094 52.042969-116.246094 116.25v17.582031c2.636719-.679688 5.386719-1.082031 8.238281-1.082031 18.171875 0 32.902344 14.730469 32.902344 32.902343 0 2.640626-.320312 5.203126-.90625 7.660157h44.714844v18.609375h111.257812v-18.609375h44.316406c-.589843-2.457031-.910156-5.019531-.910156-7.660157 0-18.171874 14.734375-32.902343 32.90625-32.902343 3.109375 0 6.109375.457031 8.964844 1.265625v-17.769532c.003906-64.203124-52.039062-116.246093-116.242188-116.246093zm0 0" fill="#fff"/><path d="m249.699219 270.589844h-48.996094c-29.300781 0-56.042969 10.863281-76.484375 28.753906 17.308594 10.746094 28.132812 29.78125 28.132812 50.582031v83.960938h17.054688v18.609375h111.257812v-18.609375h17.367188v-83.960938c0-20.800781 10.828125-39.84375 28.140625-50.585937-20.4375-17.890625-47.175781-28.75-76.472656-28.75zm0 0" fill="#6dc9f7"/><path d="m225.199219 262.976562c-12.601563 0-24.59375-2.582031-35.488281-7.234374v13.078124c0 19.597657 15.886718 35.484376 35.488281 35.484376 19.601562 0 35.488281-15.886719 35.488281-35.484376v-13.078124c-10.898438 4.652343-22.890625 7.234374-35.488281 7.234374zm0 0" fill="#fff"/><path d="m134.863281 123.875c-.054687 1.304688-.101562 2.617188-.101562 3.933594v44.738281c0 49.945313 40.488281 90.429687 90.433593 90.429687 49.945313 0 90.433594-40.484374 90.433594-90.429687v-44.742187c0-1.316407-.046875-2.625-.101562-3.933594h-180.664063zm0 0" fill="#fff"/><path d="m326.15625 111.511719c-4.160156-49.644531-44.699219-89.386719-94.417969-92.597657-58.980469-3.808593-108.1875 43.09375-108.1875 101.273438 0 .597656.042969 1.890625.125 3.6875h202.359375c.199219-6.066406.269532-10.59375.121094-12.363281zm0 0" fill="#0089ef"/><path d="m108.988281 114.546875c.21875-4.632813.746094-9.1875 1.507813-13.671875h-34.863282c-6.355468 0-11.5 5.148438-11.5 11.5s5.144532 11.5 11.5 11.5h33.332032c-.105469-3.101562-.125-6.207031.023437-9.328125zm0 0" fill="#0089ef"/><path d="m257.480469 379.550781c0 17.828125-14.453125 32.28125-32.28125 32.28125s-32.28125-14.453125-32.28125-32.28125 14.453125-32.28125 32.28125-32.28125 32.28125 14.453125 32.28125 32.28125zm0 0" fill="#fa759e"/><path d="m234.050781 357.550781-21.070312 25.804688h10.976562l-7.480469 18.195312 20.9375-24.34375h-12.460937zm0 0" fill="#fff"/><path d="m338.976562 142.789062c1.46875-7.417968 2.242188-14.976562 2.242188-22.605468 0-66.710938-56.515625-120.46875-124.183594-115.914063-58.40625 3.933594-105.261718 51.800781-108.046875 110.277344-.457031 9.546875.257813 19.007813 2.089844 28.253906-8.007813 5.394531-13.277344 14.542969-13.277344 24.921875 0 15.492188 11.734375 28.234375 26.796875 29.84375.03125.007813.0625.007813.089844.011719.042969.003906.082031.007813.128906.011719.492188.089844.992188.152344 1.507813.152344.171875 0 .332031-.039063.5-.050782.335937.011719.660156.050782 1 .050782 0 0-.003907-.074219-.007813-.152344 3.945313-.703125 6.945313-4.140625 6.945313-8.289063v-44.445312c0-4.660157-3.777344-8.441407-8.4375-8.441407-.695313 0-1.359375.109376-2.007813.269532-.457031-8.476563-.769531-14.894532-.769531-16.496094 0-58.175781 49.207031-105.082031 108.1875-101.269531 49.722656 3.207031 90.261719 42.949219 94.421875 92.59375.238281 2.863281-.085938 12.847656-.628906 25.050781-.476563-.085938-.960938-.148438-1.460938-.148438-4.660156 0-8.4375 3.78125-8.4375 8.441407v44.449219c0 4.039062 2.839844 7.40625 6.625 8.234374-.007812.128907-.011718.207032-.011718.207032.414062 0 .808593-.042969 1.21875-.058594.203124.015625.398437.058594.605468.058594.707032 0 1.378906-.113282 2.035156-.277344 14.753907-1.898438 26.160157-14.472656 26.160157-29.746094.007812-10.386718-5.269531-19.539062-13.285157-24.933594zm0 0" fill="#fa759e"/><path d="m124.667969 433.890625c.585937-2.460937.929687-5.019531.929687-7.660156 0-18.171875-14.730468-32.902344-32.902344-32.902344-18.171874 0-32.902343 14.730469-32.902343 32.902344 0 2.644531.34375 5.199219.929687 7.660156zm0 0" fill="#fff"/><path d="m45.382812 433.890625h124.019532v27.226563h-124.019532zm0 0" fill="#fa759e"/><path d="m388.945312 433.890625c.589844-2.460937.933594-5.019531.933594-7.660156 0-18.171875-14.730468-32.902344-32.90625-32.902344-18.171875 0-32.90625 14.730469-32.90625 32.902344 0 2.644531.34375 5.199219.933594 7.660156zm0 0" fill="#fff"/><path d="m45.382812 433.890625h124.019532v18.609375h-124.019532zm0 0" fill="#fa759e"/><path d="m280.664062 433.890625h124.019532v18.609375h-124.019532zm0 0" fill="#fa759e"/><path d="m431.230469 482.09375h-412.390625c-8.171875 0-14.796875-6.625-14.796875-14.796875s6.625-14.792969 14.796875-14.792969h412.386718c8.171876 0 14.796876 6.621094 14.796876 14.792969.003906 8.171875-6.621094 14.796875-14.792969 14.796875zm0 0" fill="#0089ef"/><g fill="#3a2c60"><path d="m152.355469 399.777344c2.207031 0 4-1.789063 4-4v-22.449219c0-2.210937-1.792969-4-4-4s-4 1.789063-4 4v22.449219c0 2.210937 1.792969 4 4 4zm0 0"/><path d="m185.300781 150.84375c-4.996093 0-9.046875 4.046875-9.046875 9.042969 0 4.996093 4.050782 9.042969 9.046875 9.042969 4.996094 0 9.042969-4.046876 9.042969-9.042969 0-4.996094-4.046875-9.042969-9.042969-9.042969zm0 0"/><path d="m265.09375 150.84375c-4.996094 0-9.042969 4.046875-9.042969 9.042969 0 4.996093 4.046875 9.042969 9.042969 9.042969s9.046875-4.046876 9.046875-9.042969c0-4.996094-4.050781-9.042969-9.046875-9.042969zm0 0"/><path d="m225.199219 204.136719c7.875 0 14.285156-6.40625 14.285156-14.28125v-6.027344c0-2.210937-1.789063-4-4-4-2.214844 0-4 1.789063-4 4v6.027344c0 3.464843-2.820313 6.28125-6.285156 6.28125-3.464844 0-6.285157-2.816407-6.285157-6.28125v-6.027344c0-2.210937-1.789062-4-4-4-2.207031 0-4 1.789063-4 4v6.027344c0 7.875 6.410157 14.28125 14.285157 14.28125zm0 0"/><path d="m256.621094 142.371094 17.707031 3.082031c.234375.042969.464844.0625.691406.0625 1.910157 0 3.59375-1.371094 3.9375-3.3125.378907-2.175781-1.082031-4.25-3.253906-4.628906l-17.707031-3.082031c-2.207032-.371094-4.253906 1.078124-4.628906 3.25-.382813 2.179687 1.074218 4.25 3.253906 4.628906zm0 0"/><path d="m193.84375 137.742188c-.378906-2.171876-2.433594-3.609376-4.628906-3.25l-17.707032 3.082031c-2.175781.378906-3.632812 2.453125-3.253906 4.628906.339844 1.941406 2.027344 3.3125 3.9375 3.3125.226563 0 .460938-.019531.691406-.0625l17.707032-3.082031c2.171875-.378906 3.628906-2.449219 3.253906-4.628906zm0 0"/><path d="m248.421875 216.929688c1.335937-1.757813.988281-4.265626-.769531-5.601563-1.765625-1.335937-4.273438-.988281-5.601563.769531-.058593.082032-5.9375 7.671875-16.847656 7.671875-10.992187 0-16.550781-7.273437-16.808594-7.621093-1.296875-1.769532-3.785156-2.167969-5.566406-.882813-1.792969 1.292969-2.195313 3.792969-.90625 5.585937.324219.445313 8.054687 10.914063 23.28125 10.914063 14.835937.007813 22.882813-10.394531 23.21875-10.835937zm0 0"/><path d="m185.925781 355.140625c2.226563 2.863281 4.617188 5.410156 7.078125 7.761719-2.59375 4.992187-4.085937 10.648437-4.085937 16.652344 0 20.003906 16.273437 36.28125 36.277343 36.28125 20.003907 0 36.28125-16.277344 36.28125-36.28125 0-6.003907-1.488281-11.660157-4.085937-16.652344 2.429687-2.316406 4.785156-4.820313 6.980469-7.636719 1.359375-1.738281 1.050781-4.25-.691406-5.609375-1.75-1.367188-4.257813-1.054688-5.613282.691406-1.652344 2.113282-3.402344 4.015625-5.195312 5.808594-6.660156-7.867188-16.589844-12.878906-27.675782-12.878906-11.089843 0-21.011718 5.011718-27.671874 12.878906-1.820313-1.824219-3.605469-3.765625-5.285157-5.921875-1.359375-1.746094-3.871093-2.054687-5.609375-.699219-1.746094 1.347656-2.0625 3.863282-.703125 5.605469zm39.273438-3.867187c15.59375 0 28.28125 12.683593 28.28125 28.277343 0 15.589844-12.6875 28.28125-28.28125 28.28125s-28.277344-12.6875-28.277344-28.28125c-.003906-15.59375 12.683594-28.277343 28.277344-28.277343zm0 0"/><path d="m266.03125 346.082031c.625.351563 1.304688.519531 1.972656.519531 1.390625 0 2.746094-.726562 3.480469-2.023437 2.03125-3.574219 3.914063-7.421875 5.59375-11.445313.855469-2.035156-.101563-4.378906-2.140625-5.234374-2.046875-.851563-4.382812.105468-5.234375 2.144531-1.5625 3.722656-3.300781 7.285156-5.175781 10.578125-1.089844 1.925781-.417969 4.371094 1.503906 5.460937zm0 0"/><path d="m276.371094 323.875c.386718.117188.773437.171875 1.15625.171875 1.71875 0 3.304687-1.117187 3.828125-2.84375 1.195312-3.953125 2.230469-8.078125 3.082031-12.253906.4375-2.167969-.957031-4.273438-3.121094-4.714844-2.152344-.433594-4.277344.957031-4.722656 3.125-.792969 3.933594-1.769531 7.816406-2.894531 11.53125-.640625 2.117187.554687 4.347656 2.671875 4.984375zm0 0"/><path d="m281.984375 300.023438c.152344.015624.308594.023437.457031.023437 2.003906 0 3.738282-1.5 3.96875-3.539063.480469-4.144531.792969-8.371093.933594-12.554687.078125-2.207031-1.652344-4.058594-3.859375-4.128906-2.195313-.085938-4.066406 1.652343-4.132813 3.863281-.136718 3.96875-.433593 7.976562-.886718 11.902344-.25 2.191406 1.324218 4.175781 3.519531 4.433594zm0 0"/><path d="m169.054688 304.089844c-2.167969.4375-3.566407 2.546875-3.128907 4.710937.84375 4.171875 1.878907 8.296875 3.066407 12.253907.519531 1.730468 2.105468 2.847656 3.828124 2.847656.378907 0 .765626-.054688 1.15625-.171875 2.113282-.636719 3.316407-2.867188 2.675782-4.984375-1.117188-3.71875-2.089844-7.601563-2.886719-11.535156-.433594-2.160157-2.542969-3.570313-4.710937-3.121094zm0 0"/><path d="m173.25 332.996094c1.675781 4.011718 3.554688 7.863281 5.585938 11.445312.734374 1.300782 2.085937 2.027344 3.484374 2.027344.667969 0 1.34375-.167969 1.96875-.519531 1.917969-1.085938 2.59375-3.527344 1.507813-5.449219-1.875-3.308594-3.609375-6.871094-5.160156-10.589844-.847657-2.039062-3.191407-3.003906-5.234375-2.152344-2.039063.855469-3.003906 3.195313-2.152344 5.238282zm0 0"/><path d="m167.929688 299.894531c.152343 0 .308593-.007812.464843-.023437 2.191407-.253906 3.769531-2.238282 3.515625-4.433594-.449218-3.914062-.746094-7.917969-.878906-11.90625-.074219-2.207031-1.957031-3.972656-4.132812-3.863281-2.207032.074219-3.9375 1.921875-3.863282 4.128906.140625 4.207031.453125 8.425781.925782 12.558594.238281 2.035156 1.964843 3.539062 3.96875 3.539062zm0 0"/><path d="m431.230469 448.503906h-22.546875v-14.613281c0-2.207031-1.789063-4-4-4h-10.996094c.121094-1.203125.195312-2.425781.195312-3.660156 0-15.785157-9.976562-29.242188-23.941406-34.507813v-14.898437c0-31.734375-12.375-60.605469-32.535156-82.101563-.210938-.277344-.429688-.523437-.703125-.730468-14.15625-14.847657-32.058594-26.082032-52.183594-32.183594-.265625-.117188-.535156-.199219-.832031-.257813-5.765625-1.699219-11.699219-2.984375-17.785156-3.808593 24.089844-11.554688 42.523437-33.035157 50.03125-59.101563 1.21875 1.0625 2.628906 1.878906 4.195312 2.40625.636719.40625 1.347656.699219 2.117188.699219.414062 0 .808594-.046875 1.21875-.058594.207031.011719.398437.058594.605468.058594.980469 0 1.929688-.144532 2.84375-.359375 16.558594-2.289063 29.355469-16.492188 29.355469-33.664063 0-10.453125-4.773437-20.234375-12.898437-26.667968 1.226562-6.953126 1.847656-13.960938 1.847656-20.867188 0-33.105469-13.910156-65.101562-38.167969-87.777344-24.582031-22.984375-56.625-34.390625-90.285156-32.128906-54.875 3.691406-99.34375 43.988281-109.644531 96.589844h-31.492188c-8.550781 0-15.5 6.953125-15.5 15.5s6.949219 15.5 15.5 15.5h29.476563c.285156 4.421875.808593 8.828125 1.582031 13.1875-8.113281 6.4375-12.882812 16.214844-12.882812 26.660156 0 16.964844 12.492187 31.027344 28.753906 33.570312 1.613281 13.609376 12.351562 24.4375 25.917968 26.199219 9.238282 12.867188 21.613282 23.339844 36.023438 30.246094-6.085938.824219-12.019531 2.109375-17.78125 3.808594-.28125.058593-.539062.136719-.796875.25-20.140625 6.097656-38.050781 17.332031-52.21875 32.1875-.273437.214843-.5.460937-.714844.746093-20.15625 21.496094-32.527343 50.359376-32.527343 82.09375v14.628907c-14.347657 5.066406-24.667969 18.722656-24.667969 34.777343 0 1.234376.074219 2.457032.195312 3.660157h-10.601562c-2.207031 0-4 1.792969-4 4v14.613281h-22.542969c-10.363281 0-18.796875 8.429688-18.796875 18.792969 0 10.367187 8.433594 18.800781 18.796875 18.800781h412.390625c10.363281 0 18.796875-8.429688 18.796875-18.800781 0-10.367188-8.4375-18.789063-18.800781-18.789063zm-30.546875 0h-116.019532v-10.613281h116.019532zm-14.800782-22.273437c0 1.242187-.101562 2.460937-.257812 3.660156h-57.292969c-.160156-1.199219-.261719-2.417969-.261719-3.660156 0-15.941407 12.96875-28.90625 28.910157-28.90625 15.9375 0 28.902343 12.964843 28.902343 28.90625zm-23.941406-36.53125c-1.625-.222657-3.273437-.375-4.960937-.375-20.351563 0-36.910157 16.554687-36.910157 36.90625 0 1.234375.078126 2.457031.195313 3.660156h-18.226563v-77.980469c0-21.363281 12.179688-40.636718 31.226563-49.910156 17.8125 19.871094 28.671875 46.09375 28.671875 74.824219v12.875zm-105.253906-128.105469v7.226562c0 17.359376-14.125 31.484376-31.492188 31.484376-17.363281 0-31.488281-14.121094-31.488281-31.484376v-7.226562c.351563.125.714844.207031 1.066407.328125 1.992187.679687 4.007812 1.304687 6.0625 1.851563.234374.066406.46875.140624.703124.199218 2.347657.609375 4.738282 1.101563 7.15625 1.53125.289063.050782.574219.105469.867188.15625 2.449219.40625 4.925781.71875 7.433594.9375.152344.011719.300781.023438.449218.035156 2.5625.210938 5.136719.34375 7.75.34375 2.613282 0 5.1875-.132812 7.746094-.34375.152344-.011718.304688-.019531.460938-.035156 2.503906-.214844 4.980468-.527344 7.425781-.933594.292969-.050781.582031-.105468.878906-.15625 2.414063-.429687 4.800781-.921874 7.144531-1.53125.242188-.0625.484376-.136718.722657-.207031 2.039062-.542969 4.050781-1.167969 6.03125-1.84375.359375-.125.726562-.203125 1.082031-.332031zm-24.980469-171.722656h-13.019531c-11.675781 0-21.175781 9.5-21.175781 21.175781v8.824219h-69.953125c.089844-26.6875 11.320312-52.476563 30.859375-70.796875 19.878906-18.636719 45.835937-27.933594 73.066406-26.167969 47.707031 3.085938 86.695313 41.316406 90.6875 88.941406.101563 1.246094.082031 4.113282-.015625 8.027344h-69.273438v-8.828125c0-11.675781-9.5-21.175781-21.175781-21.175781zm-100.945312 99.433594c0 2.449218-1.992188 4.441406-4.433594 4.441406-2.445313 0-4.441406-1.992188-4.441406-4.441406v-44.449219c0-2.449219 1.992187-4.441407 4.441406-4.441407 2.445313 0 4.433594 1.992188 4.433594 4.441407zm188.871093-44.449219c0-2.449219 1.992188-4.441407 4.433594-4.441407 2.445313 0 4.4375 1.992188 4.4375 4.441407v44.449219c0 2.449218-1.992187 4.441406-4.4375 4.441406-2.441406 0-4.433594-1.992188-4.433594-4.441406zm28.636719 22.867187c0 9.058594-4.710937 16.957032-11.761719 21.601563 0-.003907 0-.015625 0-.019531v-43.410157c.082032.066407.148438.15625.238282.214844 7.214844 4.851563 11.523437 12.933594 11.523437 21.613281zm-235.285156-52.988281c2.710937-56.875 47.558594-102.648437 104.320313-106.472656 31.398437-2.085938 61.335937 8.535156 84.277343 29.992187 22.644531 21.171875 35.632813 51.035156 35.632813 81.933594 0 6.5-.625 13.097656-1.792969 19.648438-1.164063-2.625-3.222656-4.742188-5.777344-6.039063.464844-11.027344.722657-19.859375.492188-22.617187-4.3125-51.542969-46.507813-92.917969-98.140625-96.253907-2.363282-.152343-4.707032-.226562-7.054688-.226562-26.867187 0-52.214844 10-72 28.542969-21.222656 19.894531-33.394531 47.941406-33.394531 76.945312 0 1.476562.25 6.769531.625 13.921875-2.472656 1.421875-4.410156 3.632813-5.441406 6.320313-1.542969-8.460938-2.160157-17.089844-1.746094-25.695313zm-44.855469-2.363281c0-4.136719 3.363282-7.5 7.5-7.5h30.214844c-.398438 3.128906-.699219 6.285156-.851562 9.480468-.089844 1.839844-.105469 3.679688-.109376 5.519532h-29.25c-4.140624 0-7.503906-3.363282-7.503906-7.5zm33.671875 55.351562c0-8.671875 4.300781-16.753906 11.511719-21.605468.21875-.148438.390625-.339844.570312-.523438v43.710938c0 .09375.023438.175781.027344.269531-7.246094-4.617188-12.109375-12.640625-12.109375-21.851563zm28.785157 33.222656c1.441406-.527343 2.742187-1.316406 3.878906-2.304687 1.867187 6.488281 4.398437 12.703125 7.542968 18.542969-6.042968-3.238282-10.394531-9.207032-11.421874-16.238282zm28.179687 26.828126h11.140625c1.648438 4.582031 5.988281 7.875 11.136719 7.875 6.558593 0 11.875-5.3125 11.875-11.875 0-6.558594-5.316407-11.875-11.875-11.875-5.148438 0-9.488281 3.296874-11.136719 7.875h-17.046875c-8.898437-13.585938-14.101563-29.808594-14.101563-47.226563v-44.671875h172.875v44.671875c0 47.660156-38.773437 86.429687-86.4375 86.429687-26.671874 0-50.558593-12.148437-66.429687-31.203124zm-70.3125 149.050781c0-28.730469 10.859375-54.953125 28.671875-74.824219 19.050781 9.269531 31.226562 28.546875 31.226562 49.910156 0 2.207032 1.792969 4 4 4 2.207032 0 4-1.792968 4-4 0-23.5625-12.949218-44.910156-33.414062-55.921875 11.375-10.941406 25.03125-19.515625 40.1875-24.917969-.003906.042969-.011719.089844-.011719.132813-.101562 2.207031 1.601563 4.078125 3.808594 4.183594.066406 0 .128906.003906.191406.003906 2.121094 0 3.894531-1.667969 3.992188-3.8125.050781-1.03125.136719-2.042969.207031-3.0625 4.6875-1.273437 9.488281-2.257813 14.394531-2.914063v3.21875c0 21.769532 17.714844 39.484376 39.488281 39.484376 21.777344 0 39.492188-17.710938 39.492188-39.484376v-3.214843c4.90625.660156 9.707031 1.640625 14.394531 2.914062.070313 1.023438.152344 2.035157.207031 3.066407.101563 2.140624 1.871094 3.808593 3.988282 3.808593.070312 0 .132812 0 .203125-.003906 2.203125-.109375 3.90625-1.984375 3.796875-4.1875-.003906-.042969-.007813-.085937-.007813-.128906 15.15625 5.398437 28.8125 13.976562 40.1875 24.917969-20.464843 11.011718-33.414062 32.355468-33.414062 55.921874v77.980469h-13.375c-2.210938 0-4 1.792969-4 4v14.613281h-103.261719v-14.613281c0-2.207031-1.792969-4-4-4h-13.050781v-14.113281c0-2.207031-1.792969-4-4-4s-4 1.792969-4 4v14.113281h-18.953125c.121094-1.203125.195312-2.425781.195312-3.660156 0-20.347656-16.554687-36.90625-36.90625-36.90625-1.4375 0-2.847656.101563-4.238281.261719zm-24.664063 49.40625c0-15.941407 12.964844-28.90625 28.90625-28.90625 15.941407 0 28.90625 12.964843 28.90625 28.90625 0 1.242187-.097656 2.460937-.257812 3.660156h-57.296875c-.160156-1.199219-.257813-2.417969-.257813-3.660156zm-14.40625 11.660156h116.019532v10.613281h-116.019532zm381.847657 40.207031h-412.390625c-5.953125 0-10.796875-4.84375-10.796875-10.800781 0-5.949219 4.84375-10.792969 10.796875-10.792969h412.390625c5.953125 0 10.796875 4.84375 10.796875 10.792969 0 5.957031-4.84375 10.800781-10.796875 10.800781zm0 0"/></g></svg>