<svg height="503pt" viewBox="-60 0 503 503.79533" width="503pt" xmlns="http://www.w3.org/2000/svg"><path d="m375.785156 197.324219c-5.40625-7.742188-13.625-13.675781-24.320312-15.953125-10.769532-2.292969-22.335938-.050782-31.453125 6.113281-.375.25-.761719.484375-1.128907.75-1.113281.8125-2.207031 1.675781-3.257812 2.613281l-81.230469 72.601563c-7.148437-2.5-14.605469-4.324219-22.308593-5.402344 24.691406-11.996094 43.210937-34.730469 49.507812-62.085937 1.164062.332031 2.34375.550781 3.53125.550781 9.582031 0 17.09375-9.878907 17.09375-22.492188 0-10.6875-5.398438-19.382812-12.878906-21.800781-.046875-4.652344-2.140625-8.789062-5.386719-11.65625v-60.703125c0-20.292969-16.511719-36.804687-36.804687-36.804687h-6.839844c-6.804688-5.800782-40.972656-32.289063-90.78125-26.140626-104.636719 12.925782-104.730469 104.585938-104.71875 105.507813.019531 1.703125 1.109375 3.203125 2.722656 3.746094 1.601562.535156 3.382812.007812 4.429688-1.332031.085937-.113282 9.011718-11.496094 16.460937-17.28125 1.179687-.90625 2.355469-1.734376 3.5-2.480469-4.757813 9.421875-10.566406 23.511719-11.878906 38.261719-3.15625 35.5 14.117187 63.414062 14.851562 64.582031.746094 1.175781 2.027344 1.871093 3.390625 1.871093.238282 0 .472656-.023437.71875-.070312 1.605469-.292969 2.875-1.535156 3.199219-3.136719.039063-.195312 1.441406-6.800781 4.714844-16.527343 3.074219 4.003906 7.320312 6.449218 12.085937 6.449218 1.1875 0 2.367188-.21875 3.53125-.550781 6.296875 27.355469 24.816406 50.089844 49.503906 62.085937-26.804687 3.734376-50.710937 16.582032-68.515624 35.304688-.195313.160156-.355469.347656-.519532.542969-19.652344 20.9375-31.726562 49.066406-31.726562 79.976562v39.917969l-7.972656 7.152344c-8.554688 7.675781-9.269532 20.882812-1.59375 29.433594l9.816406 10.9375c.363281 1.089843 1.136718 1.996093 2.191406 2.4375l1.082031 1.207031c-6.90625 9.03125-6.671875 22.003906 1.175781 30.785156 4.765626 5.335937 11.394532 8.0625 18.046876 8.0625 5.742187 0 11.496093-2.027344 16.101562-6.140625l37.589844-33.597656h193.132812c6.617188 0 12-5.382813 12-12v-78.183594c0-20.765625-5.464844-40.273438-14.992187-57.191406 0 0 71.445312-63.847656 71.5-63.898438 16.707031-14.933594 17.796875-39.183594 6.429687-55.460937zm0 0" fill="#e6e7e8"/><path d="m249.125 139.53125c-1.835938 0-3.585938.542969-5.167969 1.507812v18.308594c0 5.011719-.445312 9.917969-1.25 14.703125 1.90625 1.523438 4.074219 2.464844 6.417969 2.464844 7.230469 0 13.09375-8.28125 13.09375-18.492187 0-10.214844-5.863281-18.492188-13.09375-18.492188zm0 0" fill="#fff"/><path d="m68.175781 159.347656v-18.308594c-1.589843-.964843-3.332031-1.507812-5.171875-1.507812-7.230468 0-13.097656 8.28125-13.097656 18.492188 0 10.210937 5.867188 18.492187 13.097656 18.492187 2.34375 0 4.515625-.941406 6.417969-2.464844-.804687-4.789062-1.246094-9.691406-1.246094-14.703125zm0 0" fill="#fff"/><path d="m190.550781 245.414062v7.496094c0 19.050782-15.4375 34.488282-34.488281 34.488282-19.046875 0-34.488281-15.4375-34.488281-34.488282v-7.496094c-57.382813 5.386719-102.292969 53.667969-102.292969 112.460938v86.195312h265.570312c4.421876 0 8-3.578124 8-8v-78.195312c0-58.792969-44.910156-107.074219-102.300781-112.460938zm0 0" fill="#fff"/><path d="m190.230469 257.371094c-2.191407 16.9375-16.636719 30.03125-34.167969 30.03125s-31.976562-13.089844-34.167969-30.03125c-24.292969 2.210937-46.355469 12.132812-63.75 27.273437 16.695313 10.464844 27.128907 28.894531 27.128907 49.019531v110.402344h141.554687v-.441406h.03125v-109.960938c0-20.125 10.4375-38.554687 27.128906-49.019531-17.402343-15.140625-39.460937-25.0625-63.757812-27.273437zm0 0" fill="#0089ef"/><path d="m156.0625 247.234375c-12.242188 0-23.898438-2.507813-34.488281-7.03125v12.710937c0 19.050782 15.441406 34.488282 34.488281 34.488282 19.050781 0 34.488281-15.4375 34.488281-34.488282v-12.710937c-10.585937 4.519531-22.242187 7.03125-34.488281 7.03125zm0 0" fill="#fff"/><path d="m243.953125 120.46875h-7.015625c-5.296875-12.707031-17.714844-21.667969-32.265625-21.960938-1.191406-3.402343-1.871094-7.035156-1.871094-10.839843v-.15625c-.003906 0-59.636719-20.011719-106.84375 12.871093-11.328125 7.890626-20.46875 18.171876-27.78125 28.9375v30.027344c0 48.539063 39.347657 87.886719 87.886719 87.886719 48.542969 0 87.890625-39.347656 87.890625-87.886719zm0 0" fill="#fff"/><path d="m211.152344 31.054688h-8.351563v56.609374c0 3.804688.679688 7.441407 1.871094 10.839844 14.550781.292969 26.96875 9.257813 32.265625 21.960938h7.015625v-56.605469c0-18.121094-14.683594-32.804687-32.800781-32.804687zm0 0" fill="#6dc9f7"/><path d="m202.800781 87.507812s-59.636719-20.011718-106.84375 12.871094c-41.363281 28.808594-53.667969 89.414063-53.667969 89.414063s-17.332031-27.539063-14.257812-62.101563c2.195312-24.65625 17.828125-47.960937 17.828125-47.960937s-7.949219 2.507812-15.882813 8.664062c-7.9375 6.15625-17.167968 17.980469-17.167968 17.980469s-1.085938-88.855469 101.210937-101.488281c53.441407-6.597657 88.78125 26.167969 88.78125 26.167969zm0 0" fill="#6dc9f7"/><path d="m229.210938 108.9375c-13.957032-13.957031-36.585938-13.957031-50.542969 0s-13.957031 36.585938 0 50.542969 36.585937 13.957031 50.542969 0c13.957031-13.957031 13.957031-36.585938 0-50.542969zm0 0" fill="#fa759e"/><path d="m143.378906 125.980469c-4.535156-19.210938-23.785156-31.105469-42.996094-26.570313-19.207031 4.535156-31.101562 23.785156-26.566406 42.996094 4.535156 19.207031 23.785156 31.105469 42.996094 26.566406 19.207031-4.535156 31.101562-23.785156 26.566406-42.992187zm0 0" fill="#fa759e"/><g fill="#fff"><path d="m87.273438 130.792969c-1.886719 0-3.417969 1.527343-3.417969 3.414062s1.527343 3.417969 3.417969 3.417969c1.886718 0 3.414062-1.53125 3.414062-3.417969s-1.527344-3.414062-3.414062-3.414062zm0 0"/><path d="m130.082031 130.792969c-1.882812 0-3.414062 1.527343-3.414062 3.414062s1.527343 3.417969 3.414062 3.417969c1.890625 0 3.417969-1.53125 3.417969-3.417969s-1.53125-3.414062-3.417969-3.414062zm0 0"/><path d="m96.960938 119.070312c0 1.886719-1.53125 3.417969-3.417969 3.417969s-3.414063-1.53125-3.414063-3.417969c0-1.886718 1.527344-3.414062 3.414063-3.414062s3.417969 1.527344 3.417969 3.414062zm0 0"/><path d="m126.226562 146.925781c-1.332031-1.332031-3.496093-1.332031-4.828124 0-1.332032 1.332031-1.332032 3.496094 0 4.828125 1.332031 1.332032 3.496093 1.332032 4.828124 0 1.335938-1.332031 1.335938-3.492187 0-4.828125zm0 0"/><path d="m108.679688 109.386719c-1.882813 0-3.414063 1.527343-3.414063 3.417969 0 1.886718 1.527344 3.414062 3.414063 3.414062 1.886718 0 3.414062-1.527344 3.414062-3.414062 0-1.890626-1.53125-3.417969-3.414062-3.417969zm0 0"/><path d="m108.679688 152.199219c-1.882813 0-3.414063 1.527343-3.414063 3.417969 0 1.886718 1.527344 3.414062 3.414063 3.414062 1.886718 0 3.414062-1.527344 3.414062-3.414062 0-1.890626-1.53125-3.417969-3.414062-3.417969zm0 0"/><path d="m127.230469 119.070312c0 1.886719-1.527344 3.417969-3.414063 3.417969-1.886718 0-3.417968-1.53125-3.417968-3.417969 0-1.886718 1.53125-3.414062 3.417968-3.414062 1.886719 0 3.414063 1.527344 3.414063 3.414062zm0 0"/><path d="m95.957031 146.925781c-1.332031-1.332031-3.496093-1.332031-4.828125 0-1.332031 1.332031-1.332031 3.496094 0 4.828125 1.332032 1.332032 3.496094 1.332032 4.828125 0 1.335938-1.332031 1.335938-3.492187 0-4.828125zm0 0"/><path d="m104.265625 137.660156c-1.332031-1.332031-3.496094-1.332031-4.828125 0-1.332031 1.332032-1.332031 3.496094 0 4.828125s3.496094 1.332031 4.828125 0c1.328125-1.332031 1.328125-3.496093 0-4.828125zm0 0"/><path d="m117.921875 137.660156c-1.332031-1.332031-3.496094-1.332031-4.828125 0-1.328125 1.332032-1.328125 3.496094 0 4.828125 1.332031 1.332031 3.496094 1.332031 4.828125 0 1.332031-1.335937 1.332031-3.496093 0-4.828125zm0 0"/><path d="m104.265625 125.941406c-1.332031-1.332031-3.496094-1.332031-4.828125 0-1.332031 1.332032-1.332031 3.496094 0 4.828125s3.496094 1.332031 4.828125 0c1.328125-1.332031 1.328125-3.488281 0-4.828125zm0 0"/><path d="m118.921875 128.359375c0 1.886719-1.527344 3.414063-3.414063 3.414063-1.886718 0-3.417968-1.527344-3.417968-3.414063s1.53125-3.417969 3.417968-3.417969c1.886719 0 3.414063 1.53125 3.414063 3.417969zm0 0"/><path d="m182.539062 130.792969c-1.882812 0-3.414062 1.527343-3.414062 3.414062s1.527344 3.417969 3.414062 3.417969c1.886719 0 3.417969-1.53125 3.417969-3.417969s-1.53125-3.414062-3.417969-3.414062zm0 0"/><path d="m225.351562 130.792969c-1.882812 0-3.414062 1.527343-3.414062 3.414062s1.527344 3.417969 3.414062 3.417969c1.886719 0 3.417969-1.53125 3.417969-3.417969s-1.535156-3.414062-3.417969-3.414062zm0 0"/><path d="m192.226562 119.070312c0 1.886719-1.527343 3.417969-3.414062 3.417969s-3.417969-1.53125-3.417969-3.417969c0-1.886718 1.53125-3.414062 3.417969-3.414062s3.414062 1.527344 3.414062 3.414062zm0 0"/><path d="m221.496094 146.925781c-1.332032-1.332031-3.496094-1.332031-4.828125 0s-1.332031 3.496094 0 4.828125c1.332031 1.332032 3.496093 1.332032 4.828125 0 1.332031-1.332031 1.332031-3.492187 0-4.828125zm0 0"/><path d="m203.945312 109.386719c-1.886718 0-3.417968 1.527343-3.417968 3.417969 0 1.886718 1.527344 3.414062 3.417968 3.414062 1.886719 0 3.414063-1.527344 3.414063-3.414062 0-1.890626-1.527344-3.417969-3.414063-3.417969zm0 0"/><path d="m203.945312 152.199219c-1.886718 0-3.417968 1.527343-3.417968 3.417969 0 1.886718 1.527344 3.414062 3.417968 3.414062 1.886719 0 3.414063-1.527344 3.414063-3.414062 0-1.890626-1.527344-3.417969-3.414063-3.417969zm0 0"/><path d="m222.496094 119.070312c0 1.886719-1.53125 3.417969-3.417969 3.417969s-3.414063-1.53125-3.414063-3.417969c0-1.886718 1.527344-3.414062 3.414063-3.414062s3.417969 1.527344 3.417969 3.414062zm0 0"/><path d="m191.222656 146.925781c-1.332031-1.332031-3.496094-1.332031-4.828125 0s-1.332031 3.496094 0 4.828125c1.332031 1.332032 3.496094 1.332032 4.828125 0 1.335938-1.332031 1.335938-3.492187 0-4.828125zm0 0"/><path d="m199.53125 137.660156c-1.332031-1.332031-3.496094-1.332031-4.828125 0-1.332031 1.332032-1.332031 3.496094 0 4.828125s3.496094 1.332031 4.828125 0c1.332031-1.335937 1.332031-3.496093 0-4.828125zm0 0"/><path d="m213.191406 137.660156c-1.332031-1.332031-3.496094-1.332031-4.828125 0-1.332031 1.332032-1.332031 3.496094 0 4.828125s3.496094 1.332031 4.828125 0c1.332032-1.335937 1.332032-3.496093 0-4.828125zm0 0"/><path d="m200.53125 128.359375c0 1.886719-1.527344 3.414063-3.414062 3.414063-1.886719 0-3.417969-1.527344-3.417969-3.414063s1.53125-3.417969 3.417969-3.417969c1.886718 0 3.414062 1.53125 3.414062 3.417969zm0 0"/><path d="m214.191406 128.359375c0 1.886719-1.527344 3.414063-3.414062 3.414063-1.886719 0-3.417969-1.527344-3.417969-3.414063s1.53125-3.417969 3.417969-3.417969c1.886718 0 3.414062 1.53125 3.414062 3.417969zm0 0"/><path d="m299.625 174.855469c17.828125-15.933594 45.84375-13.378907 60.371094 6.320312 12.660156 17.167969 9.261718 41.394531-6.640625 55.609375l-178.453125 159.480469c-15.859375 14.175781-40.207032 12.808594-54.382813-3.050781l-3.300781-3.691406c-14.175781-15.859376-12.808594-40.207032 3.054688-54.382813zm0 0"/></g><path d="m313.488281 190.367188c8.3125-7.429688 21.070313-6.710938 28.503907 1.601562 7.425781 8.3125 6.710937 21.070312-1.601563 28.503906l-208.070313 185.941406-26.90625-30.097656zm0 0" fill="#6dc9f7"/><path d="m132.320312 406.414062-80.859374 72.265626c-8.3125 7.425781-21.074219 6.710937-28.503907-1.601563-7.429687-8.3125-6.714843-21.070313 1.597657-28.503906l80.859374-72.261719zm0 0" fill="#fa759e"/><path d="m79.179688 396.75-12.710938-14.167969c-6.960938-7.753906-18.890625-8.398437-26.644531-1.4375l-29.84375 26.777344c-6.925781 6.214844-7.5 16.863281-1.289063 23.785156l14.066406 15.675781c13.980469 15.582032 37.949219 16.875 53.53125 2.898438 15.574219-13.984375 16.871094-37.949219 2.890626-53.53125zm0 0" fill="#fff"/><path d="m156.0625 190.164062c7.722656 0 13.996094-6.277343 13.996094-13.996093v-5.859375c0-2.210938-1.785156-4-4-4-2.210938 0-4 1.789062-4 4v5.859375c0 3.304687-2.691406 5.996093-5.996094 5.996093s-5.996094-2.6875-5.996094-5.996093v-5.859375c0-2.210938-1.785156-4-4-4-2.210937 0-4 1.789062-4 4v5.859375c0 7.71875 6.28125 13.996093 13.996094 13.996093zm0 0" fill="#3a2c60"/><path d="m178.722656 202.550781c1.335938-1.757812.988282-4.265625-.769531-5.601562-1.765625-1.34375-4.273437-.988281-5.601563.769531-.058593.078125-5.738281 7.417969-16.285156 7.417969-10.605468 0-15.984375-7.007813-16.246094-7.355469-1.292968-1.777344-3.785156-2.171875-5.574218-.886719-1.789063 1.292969-2.195313 3.792969-.902344 5.585938.3125.433593 7.859375 10.660156 22.71875 10.660156 14.480469-.003906 22.332031-10.15625 22.660156-10.589844zm0 0" fill="#3a2c60"/><path d="m359.996094 181.175781c-8.167969-11.078125-20.59375-16.726562-33.082032-16.726562-9.722656 0-19.488281 3.429687-27.289062 10.40625l-85.214844 76.152343 3.988282-3.566406c-7.199219-2.519531-14.746094-4.25-22.511719-5.292968 24.789062-11.96875 43.394531-34.761719 49.707031-62.191407 1.164062.332031 2.347656.550781 3.535156.550781 9.582032 0 17.09375-9.878906 17.09375-22.492187 0-10.6875-5.402344-19.386719-12.878906-21.800781-.046875-4.652344-2.140625-8.789063-5.386719-11.660156v-60.695313c0-20.292969-16.507812-36.804687-36.800781-36.804687h-6.84375c-6.804688-5.800782-40.964844-32.269532-90.777344-26.140626-104.644531 12.925782-104.738281 104.585938-104.726562 105.507813.019531 1.699219 1.109375 3.199219 2.722656 3.742187 1.597656.542969 3.382812.007813 4.429688-1.328124.085937-.117188 9.027343-11.507813 16.460937-17.28125 1.179687-.910157 2.359375-1.734376 3.511719-2.484376-4.765625 9.421876-10.574219 23.515626-11.886719 38.265626-3.160156 35.5 14.117187 63.414062 14.851563 64.585937.746093 1.175781 2.027343 1.871094 3.390624 1.871094.238282 0 .480469-.023438.71875-.066407 1.609376-.296874 2.875-1.535156 3.203126-3.140624.039062-.195313 1.433593-6.8125 4.710937-16.550782 3.070313 4.015625 7.316406 6.472656 12.085937 6.472656 1.1875 0 2.363282-.21875 3.527344-.550781 6.304688 27.378907 24.851563 50.128907 49.574219 62.117188-26.78125 3.71875-50.671875 16.542969-68.480469 35.210937-.269531.207032-.488281.449219-.703125.726563-19.605469 20.90625-31.640625 48.992187-31.640625 79.859375v39.914062l-7.976562 7.152344c-8.554688 7.679688-9.265625 20.882812-1.589844 29.433594l9.820312 10.941406c.363282 1.085938 1.136719 1.984375 2.179688 2.429688l1.132812 1.265624c-6.894531 9.03125-6.714843 21.957032 1.132813 30.734376 4.304687 4.816406 10.226563 7.667968 16.675781 8.03125.464844.027343.921875.042968 1.386719.042968 5.945313 0 11.613281-2.160156 16.085937-6.15625l37.589844-33.59375h193.136719c6.617187 0 12-5.382812 12-12v-78.191406c0-20.769531-5.464844-40.273438-14.992187-57.195312l71.496093-63.894532c15.902344-14.21875 19.292969-38.441406 6.632813-55.609375zm-254.890625 200.789063 21.570312 24.132812-37.769531 33.753906c6.050781-12.953124 5.140625-28.457031-2.957031-40.773437zm-2.351563-8.632813-13.480468 12.050781v-51.71875c0-22.894531-12.554688-43.628906-32.398438-54.375 16.253906-15.59375 37.304688-26.214843 60.695312-29.378906v2.996094c0 21.226562 17.265626 38.492188 38.492188 38.492188 6.660156 0 12.933594-1.703126 18.40625-4.695313l-54.195312 48.4375c-9.847657 8.796875-14.054688 21.511719-12.472657 33.6875zm83.796875-127.28125v6.859375c0 16.8125-13.675781 30.492188-30.488281 30.492188s-30.492188-13.675782-30.492188-30.492188v-6.859375c.34375.121094.699219.199219 1.042969.316407 1.972657.671874 3.972657 1.292968 6.011719 1.828124.160156.042969.320312.097657.480469.136719 2.300781.59375 4.648437 1.074219 7.019531 1.492188.253906.042969.511719.09375.765625.136719 2.386719.394531 4.800781.699218 7.242187.90625.136719.011718.269532.019531.40625.03125 2.484376.203124 4.984376.332031 7.519532.332031 2.53125 0 5.035156-.132813 7.515625-.332031.140625-.011719.277343-.019532.417969-.03125 2.441406-.207032 4.851562-.511719 7.234374-.90625.261719-.046876.515626-.09375.773438-.140626 2.367188-.417968 4.714844-.898437 7.019531-1.492187.152344-.039063.304688-.089844.457031-.128906 2.050782-.539063 4.066407-1.167969 6.058594-1.84375.339844-.113281.683594-.1875 1.015625-.304688zm8 6.859375v-2.9375c5.804688.773438 11.484375 1.957032 16.960938 3.621094l-24.039063 21.484375c4.441406-6.269531 7.078125-13.910156 7.078125-22.167969zm-28.59375-130.359375c-1.515625.667969-2.738281 1.9375-3.207031 3.597657l-.773438 2.746093c-.304687 1.082031-1.300781 1.835938-2.425781 1.835938h-6.566406c-1.125 0-2.121094-.753907-2.425781-1.835938l-.769532-2.75c-.46875-1.660156-1.6875-2.929687-3.207031-3.597656-1.457031-4.742187-3.800781-9.09375-6.804687-12.902344h32.988281c-3.007813 3.8125-5.351563 8.164063-6.808594 12.90625zm15.222657-20.863281c-.066407-.003906-.125-.039062-.1875-.039062h-49.679688c-5.054688-3.53125-10.957031-5.902344-17.339844-6.773438 21.488282-9.527344 43.980469-10.226562 60.792969-8.640625.039063.003906.074219.007813.113281.011719 5.515625.523437 10.40625 1.296875 14.453125 2.078125l.382813.070312c1.234375.242188 2.386718.484375 3.445312.722657.148438.03125.296875.0625.441406.097656 1.023438.234375 1.972657.457031 2.8125.664062.089844.019532.160157.039063.246094.0625.800782.203125 1.511719.390625 2.125.558594.039063.011719.085938.023438.125.035156.046875.59375.167969 1.160156.246094 1.746094.070312.566406.140625 1.132812.234375 1.695312.046875.25.066406.511719.117187.757813-6.773437.757813-13.015624 3.226563-18.328124 6.953125zm-104.320313 32.519531c0-17.5 14.242187-31.738281 31.742187-31.738281 17.503907 0 31.742188 14.238281 31.742188 31.738281s-14.238281 31.742188-31.742188 31.742188c-17.507812 0-31.742187-14.238281-31.742187-31.742188zm127.085937-31.734375c17.503907 0 31.742188 14.238282 31.742188 31.738282s-14.238281 31.742187-31.742188 31.742187c-17.5 0-31.742187-14.242187-31.742187-31.742187.003906-17.503907 14.242187-31.738282 31.742187-31.738282zm47.351563 41.570313c3.875 1.617187 6.921875 7.335937 6.921875 13.980469 0 8.9375-5.421875 16.492187-11.164062 14.042968.011718-.085937.015624-.175781.027343-.261718.25-1.8125.4375-3.640626.578125-5.480469.027344-.363281.058594-.726563.082032-1.089844.125-1.945313.210937-3.90625.210937-5.886719v-11.136718c1.34375-1.1875 2.460937-2.589844 3.34375-4.167969zm-11.34375-80.183594v52.609375h-.496094c-6-11.960938-17.828125-20.496094-31.761719-21.808594-.5625-2.246094-.894531-4.582031-.894531-6.996094v-52.609374h4.351563c15.878906 0 28.800781 12.921874 28.800781 28.804687zm-198.910156 114.683594c-4.664063-10.558594-10.917969-29.238281-9.027344-50.496094 2.074219-23.304687 17.015625-45.863281 17.167969-46.085937.941406-1.414063.894531-3.265626-.125-4.625-.765625-1.023438-1.964844-1.601563-3.199219-1.601563-.402344 0-.808594.0625-1.203125.183594-.351562.113281-8.730469 2.796875-17.136719 9.316406-3.203125 2.484375-6.558593 5.789063-9.488281 8.925781 4.0625-24.027344 21.515625-76.050781 96.480469-85.304687 45.347656-5.601563 77.597656 18.527343 84.285156 24.035156v49.292969c-15.945313-4.160156-64.523437-13.371094-105.128906 14.910156-.3125.21875-.59375.460938-.898438.679688-8.292969 3.617187-15.117187 9.980468-19.320312 17.941406-1.679688 1.976562-3.300781 3.980468-4.835938 6.019531-5.769531 2.371094-9.84375 8.035156-9.84375 14.648437 0 .101563.027344.191407.027344.289063-9.261719 16.027344-14.832031 31.871094-17.753906 41.871094zm24.027343-6.480469c-4.429687 1.898438-8.671874-2.199219-10.371093-8.277344 2.148437-5.394531 4.757812-11.230468 7.882812-17.210937.496094.585937 1.019531 1.128906 1.589844 1.632812v11.136719c0 1.980469.082031 3.945312.207031 5.890625.023438.355469.054688.707031.082032 1.066406.144531 1.902344.339843 3.789063.59375 5.660157.011718.039062.011718.070312.015624.101562zm7.929688-1.601562c-.152344-1.140626-.328125-2.277344-.433594-3.414063-.230468-2.539063-.390625-5.097656-.390625-7.699219v-7.363281c.320313.050781.652344.066406.980469.097656 6.554688 12.949219 19.964844 21.867188 35.4375 21.867188 15.800781 0 29.433594-9.289063 35.839844-22.675781 2.480468-.039063 4.683594-1.707032 5.359375-4.105469l.769531-2.753907c.304688-1.078124 1.300781-1.835937 2.425781-1.835937h6.566407c1.125 0 2.121093.757813 2.425781 1.835937l.773437 2.75c.671875 2.398438 2.875 4.070313 5.363282 4.109376 6.398437 13.386718 20.035156 22.675781 35.832031 22.675781 15.496093 0 28.914062-8.9375 35.464843-21.910157.179688-.019531.367188-.027343.542969-.054687v7.359375c0 2.597656-.15625 5.164062-.394531 7.703125-.101562 1.105469-.269531 2.210937-.417969 3.320313-5.429687 41.054687-40.570312 72.867187-83.082031 72.867187-42.480469 0-77.597656-31.765625-83.0625-72.773437zm-49.71875 187.414062c0-27.859375 10.523438-53.296875 27.78125-72.578125 18.433594 9.011719 30.210938 27.679687 30.210938 48.371094v58.867187l-.28125.25-11.546876-12.875c-8.417968-9.378906-22.910156-10.171875-32.296874-1.746094l-13.867188 12.441407zm-10.632812 53.019531 29.84375-26.777343c2.835937-2.546876 6.386718-3.796876 9.917968-3.796876 4.085938 0 8.144532 1.667969 11.082032 4.929688l12.710937 14.167969c12.484375 13.917969 11.324219 35.398437-2.585937 47.882812-13.917969 12.480469-35.398438 11.324219-47.882813-2.59375l-14.066406-15.675781c-4.726563-5.269531-4.292969-13.402344.980469-18.136719zm36.148437 64.804688c-3.226563 2.878906-7.40625 4.34375-11.691406 4.09375-4.316407-.246094-8.28125-2.152344-11.164063-5.378907-5.035156-5.632812-5.347656-13.824218-1.296875-19.820312 7.613281 6.167969 16.949219 9.359375 26.34375 9.359375 4.554688 0 9.105469-.773437 13.480469-2.257813zm240.054687-117.824219v78.191406c0 2.203125-1.792968 4-4 4h-53.992187v-93.808594l-8 7.148438v86.660156h-122.191406l34.320312-30.667968 5.058594-4.519532c3.015625.757813 6.105469 1.183594 9.207031 1.183594 9.136719 0 18.304688-3.230469 25.652344-9.796875l104.640625-93.515625-3.78125 3.382812c8.339844 15.402344 13.085937 33.027344 13.085937 51.742188zm59.171876-127.054688-178.453126 159.480469c-5.597656 5.003907-12.816406 7.761719-20.320312 7.761719-.5 0-.984375-.058594-1.480469-.085938l29.203125-26.101562c1.648438-1.472656 1.785156-4 .320313-5.648438-1.476563-1.648437-4.007813-1.785156-5.648438-.316406l-39.003906 34.855469-21.574219-24.132813 205.082032-183.285156c3.226562-2.878906 7.398437-4.335937 11.691406-4.09375 4.316406.246094 8.28125 2.152344 11.164062 5.378906 5.945313 6.65625 5.371094 16.90625-1.28125 22.851563l-115.96875 103.640625c-1.644531 1.46875-1.785156 4-.316406 5.644531 1.476562 1.648438 4.007812 1.789063 5.644531.316407l115.96875-103.636719c9.945313-8.890625 10.804688-24.210938 1.917969-34.152344-8.890625-9.945313-24.214844-10.804687-34.144531-1.917969l-195.246094 174.492188c.496094-7.703125 3.824219-15.226563 10.027344-20.769532l179.347656-160.28125c6.039063-5.402343 13.84375-8.371093 21.964844-8.378906 10.613281 0 20.320312 4.914063 26.636719 13.476563 9.960937 13.507812 7.527343 33.230469-5.53125 44.902343zm0 0" fill="#3a2c60"/><path d="m206.121094 335.097656-18.128906 16.203125c-1.648438 1.46875-1.789063 4-.320313 5.648438.792969.882812 1.886719 1.332031 2.984375 1.332031.949219 0 1.902344-.339844 2.664062-1.019531l18.128907-16.199219c1.644531-1.472656 1.785156-4 .320312-5.648438-1.476562-1.644531-4.003906-1.78125-5.648437-.316406zm0 0" fill="#3a2c60"/></svg>