<?xml version="1.0"?>
<svg xmlns="http://www.w3.org/2000/svg" height="512px" viewBox="0 0 512 512.001" width="512px" class=""><g><path d="m242.25 160c-23.15625 0-42 18.839844-42 42s18.84375 42 42 42c23.160156 0 42-18.839844 42-42s-18.839844-42-42-42zm0 64c-12.128906 0-22-9.867188-22-22s9.871094-22 22-22c12.132812 0 22 9.867188 22 22s-9.867188 22-22 22zm0 0" data-original="#000000" class="active-path" data-old_color="#ffffff" fill="#ffffff"/><path d="m50.25 107.25c-2.628906 0-5.210938 1.070312-7.070312 2.929688-1.859376 1.859374-2.929688 4.441406-2.929688 7.070312s1.070312 5.210938 2.929688 7.070312c1.859374 1.859376 4.441406 2.929688 7.070312 2.929688s5.210938-1.070312 7.070312-2.929688c1.859376-1.859374 2.929688-4.441406 2.929688-7.070312s-1.070312-5.210938-2.929688-7.070312c-1.859374-1.859376-4.441406-2.929688-7.070312-2.929688zm0 0" data-original="#000000" class="active-path" data-old_color="#ffffff" fill="#ffffff"/><path d="m50.25 163.75c-2.628906 0-5.210938 1.070312-7.070312 2.929688-1.859376 1.859374-2.929688 4.441406-2.929688 7.070312s1.070312 5.210938 2.929688 7.070312c1.859374 1.859376 4.441406 2.929688 7.070312 2.929688s5.210938-1.070312 7.070312-2.929688c1.859376-1.859374 2.929688-4.441406 2.929688-7.070312s-1.070312-5.210938-2.929688-7.070312c-1.859374-1.859376-4.441406-2.929688-7.070312-2.929688zm0 0" data-original="#000000" class="active-path" data-old_color="#ffffff" fill="#ffffff"/><path d="m50.25 220.25c-2.628906 0-5.210938 1.070312-7.070312 2.929688-1.859376 1.859374-2.929688 4.441406-2.929688 7.070312s1.070312 5.210938 2.929688 7.070312c1.859374 1.859376 4.441406 2.929688 7.070312 2.929688s5.210938-1.070312 7.070312-2.929688c1.859376-1.859374 2.929688-4.441406 2.929688-7.070312s-1.070312-5.210938-2.929688-7.070312c-1.859374-1.859376-4.441406-2.929688-7.070312-2.929688zm0 0" data-original="#000000" class="active-path" data-old_color="#ffffff" fill="#ffffff"/><path d="m50.25 276.75c-2.628906 0-5.210938 1.070312-7.070312 2.929688-1.859376 1.859374-2.929688 4.441406-2.929688 7.070312s1.070312 5.210938 2.929688 7.070312c1.859374 1.859376 4.441406 2.929688 7.070312 2.929688s5.210938-1.070312 7.070312-2.929688c1.859376-1.859374 2.929688-4.441406 2.929688-7.070312s-1.070312-5.210938-2.929688-7.070312c-1.859374-1.859376-4.441406-2.929688-7.070312-2.929688zm0 0" data-original="#000000" class="active-path" data-old_color="#ffffff" fill="#ffffff"/><path d="m242.25 99.667969c5.523438 0 10-4.480469 10-10 0-5.523438-4.476562-10-10-10-67.453125 0-122.332031 54.878906-122.332031 122.332031 0 5.523438 4.480469 10 10 10 5.523437 0 10-4.476562 10-10 0-56.425781 45.90625-102.332031 102.332031-102.332031zm0 0" data-original="#000000" class="active-path" data-old_color="#ffffff" fill="#ffffff"/><path d="m252.25 129c0-5.523438-4.476562-10-10-10-45.765625 0-83 37.234375-83 83 0 5.523438 4.480469 10 10 10 5.523438 0 10-4.476562 10-10 0-34.738281 28.261719-63 63-63 5.523438 0 10-4.476562 10-10zm0 0" data-original="#000000" class="active-path" data-old_color="#ffffff" fill="#ffffff"/><path d="m482.007812 196.335938c-3.796874 0-7.429687.714843-10.777343 2.007812-3.050781-12.527344-13.984375-21.996094-27.230469-22.832031v-145.511719c0-16.542969-13.457031-30-30-30h-384c-16.542969 0-30 13.457031-30 30v344c0 16.542969 13.457031 30 30 30h274.203125c4.714844 8.179688 10.511719 15.753906 17.308594 22.527344l18.675781 18.621094v56.851562c0 5.523438 4.476562 10 10 10 5.519531 0 10-4.476562 10-10v-61c0-2.65625-1.058594-5.203125-2.9375-7.082031l-21.613281-21.550781c-6.796875-6.777344-12.371094-14.535157-16.585938-22.984376-.035156-.066406-.066406-.128906-.101562-.195312-3.445313-6.949219-5.980469-14.359375-7.503907-22.09375l-10.46875-53.085938c-.550781-2.773437.03125-5.582031 1.628907-7.914062 1.597656-2.332031 4.011719-3.886719 6.792969-4.378906 5.398437-.949219 10.640624 2.472656 11.945312 7.792968l8.605469 35.097657c1.359375 5.5625 6.671875 9.230469 12.351562 8.550781 5.683594-.683594 9.96875-5.519531 9.96875-11.242188v-136.476562c0-5.511719 4.484375-9.992188 9.992188-9.992188 5.125 0 9.355469 3.875 9.921875 8.851563v65.089844c0 .386719.070312 9.441406.070312 9.441406 0 5.523437 4.480469 10 10 10 5.523438 0 10-4.476563 10-10v-73.390625c0-.65625-.027344-1.304688-.070312-1.953125v-16.929687c0-5.511719 4.484375-9.992188 9.992187-9.992188 5.511719 0 9.996094 4.480469 9.996094 9.992188v16.917968c-.042969.648438-.074219 1.304688-.074219 1.964844v73.390625c0 5.523437 4.480469 10 10 10 5.523438 0 10-4.476563 10-10v-7.871094c.042969-.378906.074219-.761719.074219-1.152343v-65.515626c.570313-4.96875 4.796875-8.84375 9.921875-8.84375 5.507812 0 9.992188 4.480469 9.992188 9.992188v18.941406c-.042969.644532-.070313 1.292969-.070313 1.949219v52.082031c0 .710938.074219 1.40625.21875 2.074219.789063 4.734375 4.894531 8.347656 9.851563 8.347656 5.523437 0 10-4.480469 10-10v-53.644531c.570312-4.972656 4.800781-8.851562 9.921874-8.851562 5.511719 0 9.992188 4.480468 9.992188 9.992187v131.371094c0 23.546875-9.179688 45.667969-25.851562 62.289062l-13.972657 13.933594c-1.878906 1.875-2.9375 4.421875-2.9375 7.078125v61c0 5.523438 4.476563 10 10 10 5.523438 0 10-4.476562 10-10v-56.847656l11.03125-11c20.460938-20.40625 31.730469-47.554688 31.730469-76.453125v-131.371094c0-16.539063-13.453125-29.992187-29.992188-29.992187zm-79.828124-39.773438c-1.464844 0-2.902344.109375-4.3125.3125-3.09375-10.703125-7.28125-21.054688-12.511719-30.886719-2.59375-4.878906-8.644531-6.730469-13.523438-4.136719-4.875 2.589844-6.726562 8.644532-4.136719 13.519532 5.257813 9.894531 9.308594 20.382812 12.09375 31.253906-2.808593 3.152344-4.96875 6.898438-6.253906 11.023438-3.480468-1.417969-7.285156-2.207032-11.269531-2.207032-16.539063 0-29.992187 13.457032-29.992187 29.992188v84.617187c-6.800782-6.5-16.488282-9.777343-26.347657-8.03125-8.121093 1.429688-15.160156 5.964844-19.820312 12.765625-4.660157 6.804688-6.347657 15.003906-4.753907 23.09375l3.84375 19.480469c-50.277343 15.910156-105.792968 2.609375-143.351562-34.949219-55.367188-55.367187-55.367188-145.453125 0-200.820312 44.453125-44.453125 111.578125-54.515625 167.035156-25.035156 4.875 2.59375 10.933594.742187 13.523438-4.136719 2.59375-4.875.738281-10.929688-4.136719-13.523438-29.984375-15.9375-65.105469-22.070312-98.894531-17.28125-34.945313 4.960938-66.644532 20.8125-91.671875 45.835938-63.164063 63.164062-63.164063 165.9375 0 229.105469 30.90625 30.902343 72.46875 47.425781 114.757812 47.421874 15.609375 0 31.320313-2.25 46.632813-6.863281l2.730468 13.851563c.875 4.4375 2.035157 8.789062 3.4375 13.035156h-265.257812c-5.511719 0-10-4.484375-10-10v-344c0-5.515625 4.488281-10 10-10h384c5.515625 0 10 4.484375 10 10v136.011719c-5.472656-5.8125-13.226562-9.449219-21.820312-9.449219zm0 0" data-original="#000000" class="active-path" data-old_color="#ffffff" fill="#ffffff"/><path d="m349.730469 84.519531c-2.632813 0-5.210938 1.070313-7.070313 2.929688s-2.929687 4.433593-2.929687 7.070312c0 2.628907 1.070312 5.210938 2.929687 7.070313s4.4375 2.929687 7.070313 2.929687c2.628906 0 5.210937-1.070312 7.070312-2.929687s2.929688-4.441406 2.929688-7.070313c0-2.628906-1.070313-5.210937-2.929688-7.070312s-4.441406-2.929688-7.070312-2.929688zm0 0" data-original="#000000" class="active-path" data-old_color="#ffffff" fill="#ffffff"/></g> </svg>
