<?xml version="1.0"?>
<svg xmlns="http://www.w3.org/2000/svg" height="512px" viewBox="0 0 333 333.71477" width="512px"><g><path d="m167.210938 0c-92 0-166.855469 74.847656-166.855469 166.855469 0 92.011719 74.855469 166.859375 166.855469 166.859375s166.855468-74.851563 166.855468-166.859375c0-92.003907-74.855468-166.855469-166.855468-166.855469zm0 320.0625c-84.472657 0-153.199219-68.730469-153.199219-153.207031 0-84.476563 68.726562-153.203125 153.199219-153.203125 84.472656 0 153.199218 68.726562 153.199218 153.203125 0 84.476562-68.726562 153.207031-153.199218 153.207031zm0 0" data-original="#000000" class="active-path" data-old_color="#ffffff" fill="#ffffff"/><path d="m227.546875 166.855469c0-33.265625-27.066406-60.332031-60.335937-60.332031-33.269532 0-60.332032 27.066406-60.332032 60.332031 0 33.269531 27.0625 60.335937 60.332032 60.335937 33.269531 0 60.335937-27.066406 60.335937-60.335937zm-60.335937 46.683593c-25.738282 0-46.679688-20.941406-46.679688-46.683593 0-25.738281 20.941406-46.679688 46.679688-46.679688 25.742187 0 46.679687 20.941407 46.679687 46.679688 0 25.742187-20.9375 46.683593-46.679687 46.683593zm0 0" data-original="#000000" class="active-path" data-old_color="#ffffff" fill="#ffffff"/><path d="m59.804688 102.941406c17.074218-28.6875 44.292968-49.011718 76.652343-57.226562 3.652344-.925782 5.867188-4.644532 4.941407-8.296875-.933594-3.65625-4.660157-5.867188-8.300782-4.9375-35.890625 9.113281-66.09375 31.65625-85.023437 63.480469-18.941407 31.824218-24.347657 69.117187-15.242188 105.007812.785157 3.09375 3.566407 5.148438 6.613281 5.148438.558594 0 1.121094-.066407 1.6875-.210938 3.652344-.925781 5.867188-4.640625 4.9375-8.292969-8.21875-32.359375-3.339843-65.984375 13.734376-94.671875zm0 0" data-original="#000000" class="active-path" data-old_color="#ffffff" fill="#ffffff"/><path d="m79.304688 114.542969c13.972656-23.480469 36.253906-40.113281 62.738281-46.835938 3.65625-.925781 5.871093-4.640625 4.941406-8.292969-.933594-3.664062-4.664063-5.859374-8.296875-4.9375-30.023438 7.617188-55.28125 26.472657-71.113281 53.085938-15.839844 26.613281-20.367188 57.800781-12.75 87.824219.789062 3.089843 3.570312 5.148437 6.613281 5.148437.5625 0 1.121094-.066406 1.6875-.210937 3.652344-.925781 5.867188-4.644531 4.941406-8.296875-6.726562-26.484375-2.734375-54.003906 11.238282-77.484375zm0 0" data-original="#000000" class="active-path" data-old_color="#ffffff" fill="#ffffff"/><path d="m301.589844 132.746094c-.933594-3.664063-4.65625-5.878906-8.296875-4.9375-3.65625.925781-5.867188 4.640625-4.941407 8.292968 8.21875 32.359376 3.339844 65.980469-13.734374 94.671876-17.074219 28.6875-44.292969 49.011718-76.652344 57.226562-3.65625.925781-5.867188 4.644531-4.941406 8.296875.785156 3.089844 3.566406 5.148437 6.613281 5.148437.558593 0 1.121093-.070312 1.6875-.210937 35.890625-9.113281 66.09375-31.65625 85.023437-63.480469 18.941406-31.824218 24.351563-69.117187 15.242188-105.007812zm0 0" data-original="#000000" class="active-path" data-old_color="#ffffff" fill="#ffffff"/><path d="m195.738281 279.242188c30.019531-7.621094 55.28125-26.476563 71.113281-53.085938 15.839844-26.613281 20.367188-57.804688 12.746094-87.828125-.933594-3.660156-4.644531-5.855469-8.296875-4.9375-3.65625.925781-5.867187 4.644531-4.941406 8.296875 6.726563 26.488281 2.734375 54.003906-11.242187 77.484375-13.972657 23.476563-36.25 40.113281-62.738282 46.835937-3.65625.925782-5.867187 4.640626-4.941406 8.292969.785156 3.09375 3.566406 5.148438 6.613281 5.148438.5625.003906 1.121094-.066407 1.6875-.207031zm0 0" data-original="#000000" class="active-path" data-old_color="#ffffff" fill="#ffffff"/><path d="m189.632812 255.167969c23.585938-5.988281 43.433594-20.804688 55.871094-41.71875 12.449219-20.910157 16.007813-45.414063 10.019532-69.007813-.933594-3.660156-4.65625-5.871094-8.296876-4.9375-3.65625.925782-5.867187 4.644532-4.941406 8.296875 5.089844 20.054688 2.066406 40.886719-8.515625 58.664063-10.578125 17.78125-27.445312 30.378906-47.5 35.46875-3.652343.925781-5.867187 4.640625-4.9375 8.292968.785157 3.09375 3.566407 5.148438 6.613281 5.148438.558594.003906 1.121094-.066406 1.6875-.207031zm0 0" data-original="#000000" class="active-path" data-old_color="#ffffff" fill="#ffffff"/><path d="m148.152344 91.78125c3.652344-.925781 5.867187-4.644531 4.941406-8.296875-.933594-3.660156-4.65625-5.863281-8.300781-4.9375-23.585938 5.988281-43.425781 20.804687-55.875 41.714844-12.445313 20.910156-16.003907 45.421875-10.019531 69.011719.789062 3.089843 3.570312 5.148437 6.613281 5.148437.5625 0 1.121093-.066406 1.6875-.210937 3.652343-.925782 5.867187-4.644532 4.941406-8.296876-5.09375-20.050781-2.066406-40.886718 8.511719-58.667968 10.582031-17.78125 27.445312-30.375 47.5-35.464844zm0 0" data-original="#000000" class="active-path" data-old_color="#ffffff" fill="#ffffff"/><path d="m179.621094 166.855469c0 6.855469-5.554688 12.410156-12.410156 12.410156-6.851563 0-12.410157-5.554687-12.410157-12.410156 0-6.851563 5.558594-12.40625 12.410157-12.40625 6.855468 0 12.410156 5.554687 12.410156 12.40625zm0 0" data-original="#000000" class="active-path" data-old_color="#ffffff" fill="#ffffff"/></g> </svg>
