<?xml version="1.0"?>
<svg xmlns="http://www.w3.org/2000/svg" xmlns:xlink="http://www.w3.org/1999/xlink" version="1.1" id="Capa_1" x="0px" y="0px" width="512px" height="512px" viewBox="0 0 585.918 585.918" style="enable-background:new 0 0 585.918 585.918;" xml:space="preserve" class=""><g><g>
	<path d="M174.702,250.53c-5.651,0.097-9.299,0.667-11.446,1.22v75.278c2.139,0.556,5.63,0.613,8.791,0.665   c23.173,0.574,38.551-12.403,38.551-40.469C210.776,262.824,196.745,250.165,174.702,250.53z" data-original="#000000" class="active-path" data-old_color="#0089FF" fill="#00B7FF"/>
	<path d="M357.4,535.33c0.767,0.047,1.543,0.109,2.33,0.109h177.39c20.745,0,37.627-16.883,37.627-37.627V86.597   c0-20.743-16.882-37.628-37.627-37.628H359.73c-0.782,0-1.563,0.077-2.33,0.113V0L11.17,46.206v492.311l346.23,47.401V535.33z    M359.73,70.476h177.39c8.892,0,16.125,7.236,16.125,16.126v202.314c-0.439-0.06-0.87-0.167-1.322-0.204   c-2.379-0.318-4.799-0.528-7.234-0.758c-2.426-0.022-4.85,0.144-7.306,0.22c-2.49-0.005-4.903,0.436-7.313,0.948   c-2.394,0.541-4.924,0.785-7.261,1.601c-2.355,0.73-4.734,1.522-7.071,2.362c-2.304,0.95-4.503,2.074-6.775,3.118   c-2.321,0.987-4.368,2.363-6.531,3.6c-2.194,1.213-4.241,2.626-6.199,4.143c-1.983,1.475-4.059,2.893-5.863,4.583   c-1.837,1.659-3.812,3.202-5.506,4.986c-1.717,1.766-3.56,3.44-5.134,5.345c-1.628,1.858-3.282,3.695-4.789,5.658   c-0.54,0.646-1.002,1.355-1.501,2.027l-2.288-2.594c-1.807-1.953-3.471-4.059-5.477-5.807L459.639,313   c-2.018-1.716-4.348-2.965-6.5-4.451l-3.28-2.137l-3.47-1.764c-2.337-1.106-4.594-2.42-6.987-3.337l-7.212-2.662   c-2.426-0.787-4.893-1.423-7.329-2.127c-2.409-0.739-4.897-1.202-7.38-1.664c-2.468-0.504-4.945-0.86-7.435-1.122   c-2.478-0.316-4.944-0.642-7.443-0.751c-4.971-0.246-9.926-0.353-14.86-0.031c-4.913,0.278-9.828,0.813-14.625,1.904   c4.851,0.735,9.606,1.576,14.299,2.6c4.692,0.991,9.344,2.057,13.88,3.417c2.288,0.556,4.535,1.265,6.771,1.984   c2.248,0.667,4.463,1.418,6.624,2.299c2.153,0.893,4.389,1.479,6.469,2.487c2.119,0.935,4.251,1.786,6.311,2.768l6.035,3.187   c2.026,0.987,3.844,2.33,5.775,3.465c1.938,1.124,3.758,2.394,5.479,3.778c1.712,1.387,3.633,2.537,5.176,4.09l4.799,4.446   c1.585,1.485,2.803,3.309,4.252,4.903l2.132,2.436c0.649,0.86,1.174,1.806,1.773,2.709l3.559,5.396l7.611,11.601l6.489-11.736   c0.85-1.529,2.078-3.498,3.223-5.24c1.218-1.784,2.446-3.559,3.748-5.29c1.238-1.786,2.636-3.456,4.001-5.145   c1.322-1.728,2.844-3.267,4.241-4.931c1.387-1.684,3.013-3.112,4.514-4.688c1.48-1.596,3.118-2.981,4.736-4.431   c1.563-1.512,3.265-2.834,4.986-4.135c1.711-1.309,3.339-2.784,5.196-3.864c1.828-1.146,3.612-2.395,5.487-3.481   c1.925-0.944,3.867-1.936,5.773-2.997c1.905-1.112,3.994-1.674,6.009-2.551l3.077-1.218c1.039-0.352,2.127-0.546,3.182-0.867   c2.126-0.571,4.273-1.255,6.456-1.764c2.194-0.31,4.431-0.582,6.689-0.981c0.462-0.104,0.922-0.12,1.374-0.189v204.896   c0,8.892-7.233,16.127-16.125,16.127H359.73c-0.792,0-1.563-0.122-2.33-0.233v-235.59l6.456,9.843l6.489-11.74   c0.85-1.525,2.078-3.494,3.233-5.239c1.208-1.784,2.437-3.554,3.737-5.292c1.239-1.785,2.636-3.449,4-5.144   c1.323-1.725,2.846-3.262,4.253-4.929c1.374-1.688,3.002-3.111,4.493-4.685c1.49-1.598,3.139-2.985,4.744-4.43   c1.565-1.51,3.267-2.832,4.988-4.14c1.712-1.307,3.338-2.785,5.197-3.864c1.815-1.147,3.611-2.394,5.484-3.48   c1.927-0.945,3.864-1.935,5.771-2.998c1.905-1.113,3.999-1.671,6.015-2.548l3.077-1.221c1.039-0.349,2.126-0.543,3.181-0.866   c2.125-0.57,4.262-1.251,6.456-1.762c2.205-0.307,4.431-0.588,6.677-0.984c2.28-0.501,4.547-0.538,6.856-0.57l7.024-0.364   c-2.226-0.727-4.493-1.338-6.794-2.016c-2.298-0.661-4.63-1.26-7.022-1.44c-2.384-0.318-4.804-0.528-7.239-0.759   c-2.41-0.021-4.846,0.144-7.303,0.221c-2.487-0.005-4.903,0.436-7.316,0.945c-2.394,0.543-4.925,0.784-7.255,1.604   c-2.363,0.729-4.725,1.519-7.076,2.365c-2.289,0.945-4.504,2.068-6.783,3.113c-2.314,0.987-4.361,2.365-6.519,3.606   c-2.194,1.208-4.241,2.622-6.205,4.139c-1.983,1.478-4.053,2.89-5.858,4.58c-1.838,1.659-3.801,3.202-5.502,4.987   c-1.732,1.763-3.568,3.441-5.145,5.343c-1.626,1.858-3.285,3.698-4.787,5.659c-0.535,0.646-1.002,1.355-1.501,2.027l-2.279-2.596   c-1.197-1.273-2.351-2.585-3.548-3.854V70.711C358.167,70.599,358.933,70.476,359.73,70.476z M70.854,346.057   c-29.909-0.782-47.036-25.422-47.036-56.15c0-32.339,18.901-57.001,48.707-57.792c31.908-0.84,49.733,24.672,49.733,55.833   C122.259,324.99,101.156,346.88,70.854,346.057z M219.246,334.113c-12.26,10.026-30.632,14.416-52.683,13.828   c-12.998-0.348-22.121-1.434-28.276-2.436V233.759c9.079-1.746,21.009-2.903,33.754-3.242c21.48-0.554,35.632,3.086,46.846,11.386   c12.202,8.898,19.926,23.416,19.926,44.418C238.813,309.09,230.562,324.665,219.246,334.113z M337.957,250.704l-34.772,0.548v99.04   l-28.158-0.734v-97.859l-32.46,0.509v-22.63l95.391-2.425V250.704z" data-original="#000000" class="active-path" data-old_color="#0089FF" fill="#00B7FF"/>
	<path d="M71.919,251.951c-15.52,0.262-24.454,16.281-24.454,37.485c0,21.371,9.231,36.583,24.609,36.852   c15.74,0.278,24.881-15.797,24.881-37.5C96.956,268.749,87.969,251.67,71.919,251.951z" data-original="#000000" class="active-path" data-old_color="#0089FF" fill="#00B7FF"/>
</g></g> </svg>
