<?xml version="1.0" encoding="UTF-8" standalone="no"?>
<svg
   xmlns:dc="http://purl.org/dc/elements/1.1/"
   xmlns:cc="http://creativecommons.org/ns#"
   xmlns:rdf="http://www.w3.org/1999/02/22-rdf-syntax-ns#"
   xmlns:svg="http://www.w3.org/2000/svg"
   xmlns="http://www.w3.org/2000/svg"
   xmlns:sodipodi="http://sodipodi.sourceforge.net/DTD/sodipodi-0.dtd"
   xmlns:inkscape="http://www.inkscape.org/namespaces/inkscape"
   version="1.1"
   id="Capa_1"
   x="0px"
   y="0px"
   width="512px"
   height="512px"
   viewBox="0 0 588.6 588.6"
   style="enable-background:new 0 0 588.6 588.6;"
   xml:space="preserve"
   class=""
   sodipodi:docname="pdf-file-format-symbol.svg"
   inkscape:version="0.92.3 (2405546, 2018-03-11)"><metadata
   id="metadata17"><rdf:RDF><cc:Work
       rdf:about=""><dc:format>image/svg+xml</dc:format><dc:type
         rdf:resource="http://purl.org/dc/dcmitype/StillImage" /></cc:Work></rdf:RDF></metadata><defs
   id="defs15">
	
	
	
</defs><sodipodi:namedview
   pagecolor="#ffffff"
   bordercolor="#666666"
   borderopacity="1"
   objecttolerance="10"
   gridtolerance="10"
   guidetolerance="10"
   inkscape:pageopacity="0"
   inkscape:pageshadow="2"
   inkscape:window-width="1920"
   inkscape:window-height="1033"
   id="namedview13"
   showgrid="false"
   inkscape:zoom="0.4609375"
   inkscape:cx="256"
   inkscape:cy="256"
   inkscape:window-x="-4"
   inkscape:window-y="-4"
   inkscape:window-maximized="1"
   inkscape:current-layer="Capa_1" /><path
   d="m 162.643,247.503 c -5.719,0.084 -9.384,0.654 -11.549,1.213 v 75.774 c 2.16,0.554 5.674,0.617 8.849,0.68 23.382,0.623 38.908,-12.413 38.908,-40.666 0.168,-24.571 -13.965,-37.34 -36.208,-37.001 z"
   data-original="#000000"
   class="active-path"
   data-old_color="#FF4F00"
   id="path2"
   inkscape:connector-curvature="0"
   style="fill:#a70000;fill-opacity:1" /><path
   d="m 359.036,537.78 c 0.771,0.042 1.551,0.111 2.342,0.111 h 178.2 c 20.84,0 37.8,-16.96 37.8,-37.801 V 86.994 c 0,-20.838 -16.96,-37.8 -37.8,-37.8 h -178.2 c -0.786,0 -1.571,0.077 -2.342,0.113 V 0 L 11.222,46.417 V 540.981 L 359.036,588.6 Z m 180.542,-21.479 h -178.2 c -0.797,0 -1.571,-0.127 -2.342,-0.242 v -162.08 c 37.131,-6.417 88.694,-11.274 133.292,-0.796 l 5.278,10.235 c 21.289,40.253 44.028,39.989 52.813,38.006 2.015,-0.453 3.101,-0.959 3.101,-0.959 l 1.182,-0.628 c 0.4,-0.253 0.712,-0.575 1.075,-0.849 V 500.1 c 0,8.929 -7.266,16.201 -16.199,16.201 z M 374.15,334.768 c 27.906,-34.034 50.456,-65.807 64.979,-87.325 l 0.053,0.119 0.158,-0.243 c 11.401,24.036 30.196,61.214 43.137,86.59 l -0.042,-0.011 0.443,0.85 c -36.798,-6.286 -76.312,-3.992 -108.812,0.501 l 0.475,-0.554 z m 65.644,-158.81 c 1.118,-1.972 2.753,-2.494 5.685,-2.365 0.053,0.005 5.875,0.387 8.047,4.375 1.318,2.375 3.228,9.908 -7.045,28.278 h -0.011 c 0,0 -1.329,2.21 -3.828,6.199 -5.759,-20.223 -5.379,-32.032 -2.848,-36.487 z m 74.313,183.854 c 10.557,4.061 20.039,9.065 28.339,14.981 2.384,3.386 4.588,8.259 4.188,10.558 -0.021,0.111 -0.042,0.222 -0.105,0.332 -3.408,0.628 -16.961,1.05 -32.422,-25.871 z M 361.378,70.798 h 178.2 c 8.933,0 16.199,7.27 16.199,16.2 v 278.614 c -0.506,-0.723 -0.943,-1.318 -1.202,-1.64 l -0.686,-0.887 -0.896,-0.664 c -13.827,-10.094 -30.491,-17.872 -49.581,-23.129 -13.61,-26.578 -41.797,-81.974 -53.646,-107.916 6.861,-10.568 10.547,-16.728 10.716,-17.01 10.689,-19.056 13.025,-33.932 7.114,-44.426 -5.358,-9.498 -16.031,-12.351 -21.484,-12.532 -8.817,-0.401 -16.337,3.37 -20.419,10.552 -6.223,10.966 -4.936,30.175 3.86,57.056 0.391,1.242 1.018,2.834 1.846,4.838 -14.091,21.312 -39.656,58.174 -72.367,97.767 V 71.036 c 0.775,-0.114 1.544,-0.238 2.346,-0.238 z M 100.311,290.957 c -8.224,8.158 -20.313,11.718 -34.267,11.591 -3.069,-0.031 -5.843,-0.221 -7.986,-0.569 v 39.698 L 35.216,341.044 V 232.659 c 7.056,-1.469 17.041,-2.689 31.292,-3.035 14.562,-0.356 25.109,2.402 32.221,8.277 6.858,5.579 11.485,14.958 11.485,26.087 0,11.14 -3.52,20.585 -9.903,26.969 z m 107.238,40.758 c -12.337,10.066 -30.881,14.454 -53.135,13.832 -13.11,-0.375 -22.307,-1.477 -28.506,-2.5 V 230.563 c 9.152,-1.743 21.188,-2.888 34.035,-3.201 21.676,-0.53 35.955,3.159 47.271,11.538 12.287,8.98 20.084,23.599 20.084,44.745 0,22.921 -8.321,38.588 -19.749,48.07 z m 37.7,-105.521 76.842,-1.835 v 23.106 l -48.877,0.709 v 27.891 l 45.628,-0.113 v 22.884 l -45.628,-0.316 v 49.096 l -27.973,-0.771 v -120.65 h 0.008 z"
   data-original="#000000"
   class="active-path"
   data-old_color="#FF4F00"
   id="path4"
   inkscape:connector-curvature="0"
   style="fill:#a70000;fill-opacity:1" /><path
   d="m 67.745,248.622 c -4.77,0.074 -7.992,0.614 -9.683,1.139 v 32.777 c 1.98,0.498 4.438,0.665 7.834,0.665 12.551,0.01 20.363,-6.837 20.363,-18.344 0.001,-10.353 -6.725,-16.427 -18.514,-16.237 z"
   data-original="#000000"
   class="active-path"
   data-old_color="#FF4F00"
   id="path6"
   inkscape:connector-curvature="0"
   style="fill:#a70000;fill-opacity:1" /> </svg>